<svg xmlns="http://www.w3.org/2000/svg" viewBox="0 0 880 260" width="880" height="260" role="img" aria-label="COMMIT RUN — a pixel runner crossing a landscape built from KevinD003's real GitHub contribution history, 2026-06-22 to 2026-08-16.">
<defs>
  <filter id="g1" x="-80%" y="-80%" width="260%" height="260%">
    <feGaussianBlur stdDeviation="2.6" result="b"/><feMerge><feMergeNode in="b"/><feMergeNode in="SourceGraphic"/></feMerge>
  </filter>
  <filter id="g2" x="-60%" y="-60%" width="220%" height="220%">
    <feGaussianBlur stdDeviation="1.7" result="b"/><feMerge><feMergeNode in="b"/><feMergeNode in="SourceGraphic"/></feMerge>
  </filter>
  <linearGradient id="sky" x1="0" y1="0" x2="0" y2="1">
    <stop offset="0%" stop-color="#0d1a24"/><stop offset="100%" stop-color="#0a0e14"/>
  </linearGradient>
  <linearGradient id="horizon" x1="0" y1="0" x2="0" y2="1">
    <stop offset="0%" stop-color="#00e5ff" stop-opacity="0"/><stop offset="100%" stop-color="#00e5ff" stop-opacity="0.10"/>
  </linearGradient>
  <linearGradient id="edge" x1="0" y1="0" x2="1" y2="1">
    <stop offset="0%" stop-color="#00e5ff"/><stop offset="50%" stop-color="#ff2e88"/><stop offset="100%" stop-color="#ffd400"/>
  </linearGradient>
  <clipPath id="view"><rect x="0" y="42" width="880" height="218"/></clipPath>
  <style>
    .hud{font-family:"SFMono-Regular",Consolas,Menlo,monospace;font-size:14px;fill:#7fa6b4;letter-spacing:2px}
    .title{font-family:"SFMono-Regular",Consolas,Menlo,monospace;font-size:17px;font-weight:700;fill:#00e5ff;letter-spacing:5px}
    .score{font-family:"SFMono-Regular",Consolas,Menlo,monospace;font-size:18px;font-weight:700;fill:#ffd400;letter-spacing:3px}
    .cnt{font-family:"SFMono-Regular",Consolas,Menlo,monospace;font-size:11px;font-weight:700;fill:#04141a}
    .mon{font-family:"SFMono-Regular",Consolas,Menlo,monospace;font-size:9px;fill:#7fa6b4;opacity:.6;letter-spacing:.5px}
    .gap{font-family:"SFMono-Regular",Consolas,Menlo,monospace;font-size:10px;font-weight:700;fill:#ff2e88;opacity:.75;letter-spacing:1px}
  </style>
</defs>

<rect width="880" height="260" rx="12" fill="url(#sky)"/>
<rect x="0" y="164" width="880" height="46" fill="url(#horizon)"/>

<g clip-path="url(#view)">
  <g>
    <animateTransform attributeName="transform" type="translate" dur="10.14s" repeatCount="indefinite"
      calcMode="linear" values="0 0;0 0;0 0;0 0;0 0;0 0;0 0;0 0;0 0;0 0;0 0;0 0;0 0;0 0;0 0;0 0;0 0;0 0;0 0;0 0;0 0;0 0;0 0;0 0;0 0;0 0;0 0;0 0;0 0;0 0;0 0;0 0;0 0;0 0;0 0;0 0;0 0;0 0;0 0;0 0;0 0;0 0;0 0;0 0;0 0;0 0;0 0;0 0;0 0;0 0;0 0;0 0;-0.9 0;-2.15 0;-3.4 0;-4.65 0;-5.9 0;-7.15 0;-8.4 0;-9.65 0;-10.9 0;-12.15 0;-13.4 0;-14.65 0;-15.9 0;-17.15 0;-17.15 0;-18.4 0;-19.65 0;-20.9 0;-22.15 0;-23.4 0;-24.65 0;-25.9 0;-27.15 0;-28.4 0;-29.65 0;-30.1 0;-30.1 0;-30.1 0;-30.1 0;-30.1 0;-30.1 0;-30.1 0;-30.1 0;-30.1 0;-30.1 0;-30.1 0;-30.1 0;-30.1 0;-30.1 0;-30.1 0;-30.1 0;-30.1 0;-30.1 0;-30.1 0;-30.1 0;-30.1 0;-30.1 0;-30.1 0;-30.1 0;-30.1 0;-30.1 0;-30.1 0;-30.1 0;-30.1 0;-30.1 0;-30.1 0;-30.1 0;-30.1 0;-30.1 0;-30.1 0;-30.1 0;-30.1 0;-30.1 0;-30.1 0;-30.1 0;-30.1 0;-30.1 0;-30.1 0;-30.1 0;-30.1 0;-30.1 0;-30.1 0;-30.1 0;-30.1 0;-30.1 0;-30.1 0;-30.1 0;-30.1 0;-30.1 0;-30.1 0;-30.1 0;-30.1 0;-30.1 0;-30.1 0;-30.1 0;-30.1 0;-30.1 0;-30.1 0;-30.1 0;-30.1 0;-30.1 0" keyTimes="0;0.0217;0.0242;0.0267;0.0292;0.03169;0.03419;0.03669;0.03918;0.04168;0.04418;0.04667;0.04917;0.05167;0.05416;0.05666;0.07837;0.08584;0.09331;0.10079;0.10826;0.12997;0.1327;0.13543;0.13816;0.14089;0.14362;0.14636;0.14909;0.15182;0.15455;0.15728;0.16001;0.16274;0.16548;0.16821;0.18991;0.19258;0.19524;0.1979;0.20057;0.20323;0.20589;0.20856;0.21122;0.21388;0.21655;0.21921;0.22187;0.22454;0.2272;0.24891;0.25169;0.25447;0.25725;0.26003;0.26281;0.26559;0.26837;0.27115;0.27393;0.27671;0.27949;0.28227;0.28506;0.28784;0.30954;0.31191;0.31428;0.31665;0.31902;0.32139;0.32376;0.32613;0.3285;0.33087;0.33324;0.33561;0.33798;0.34035;0.34272;0.36443;0.36762;0.37081;0.374;0.37719;0.38038;0.38358;0.38677;0.38996;0.39315;0.39634;0.39953;0.40272;0.40592;0.40911;0.43081;0.44397;0.45712;0.47028;0.48343;0.49658;0.50974;0.52289;0.53605;0.5492;0.56236;0.57551;0.58867;0.60182;0.61497;0.63668;0.63887;0.64107;0.64326;0.64546;0.64765;0.64984;0.65204;0.65423;0.65643;0.65862;0.66081;0.66301;0.6652;0.6674;0.6891;0.69848;0.70786;0.71725;0.72663;0.73601;0.74539;0.75477;0.76415;0.77353;0.78292;0.7923;0.80168;0.81106;0.82044;0.84215;1"/>
    <circle cx="0" cy="48" r="1.6" fill="#00e5ff" opacity="0.32"/><circle cx="227" cy="145" r="1" fill="#00e5ff" opacity="0.16"/><circle cx="454" cy="134" r="1" fill="#00e5ff" opacity="0.16"/><circle cx="681" cy="123" r="1" fill="#00e5ff" opacity="0.32"/><circle cx="908" cy="112" r="1" fill="#00e5ff" opacity="0.16"/><circle cx="1135" cy="101" r="1.6" fill="#00e5ff" opacity="0.16"/><circle cx="1362" cy="90" r="1" fill="#00e5ff" opacity="0.32"/><circle cx="1589" cy="79" r="1" fill="#00e5ff" opacity="0.16"/><circle cx="1816" cy="68" r="1" fill="#00e5ff" opacity="0.16"/><circle cx="197" cy="57" r="1" fill="#00e5ff" opacity="0.32"/><circle cx="424" cy="154" r="1.6" fill="#00e5ff" opacity="0.16"/><circle cx="651" cy="143" r="1" fill="#00e5ff" opacity="0.16"/><circle cx="878" cy="132" r="1" fill="#00e5ff" opacity="0.32"/><circle cx="1105" cy="121" r="1" fill="#00e5ff" opacity="0.16"/><circle cx="1332" cy="110" r="1" fill="#00e5ff" opacity="0.16"/><circle cx="1559" cy="99" r="1.6" fill="#00e5ff" opacity="0.32"/><circle cx="1786" cy="88" r="1" fill="#00e5ff" opacity="0.16"/><circle cx="167" cy="77" r="1" fill="#00e5ff" opacity="0.16"/><circle cx="394" cy="66" r="1" fill="#00e5ff" opacity="0.32"/><circle cx="621" cy="55" r="1" fill="#00e5ff" opacity="0.16"/><circle cx="848" cy="152" r="1.6" fill="#00e5ff" opacity="0.16"/><circle cx="1075" cy="141" r="1" fill="#00e5ff" opacity="0.32"/><circle cx="1302" cy="130" r="1" fill="#00e5ff" opacity="0.16"/><circle cx="1529" cy="119" r="1" fill="#00e5ff" opacity="0.16"/><circle cx="1756" cy="108" r="1" fill="#00e5ff" opacity="0.32"/><circle cx="137" cy="97" r="1.6" fill="#00e5ff" opacity="0.16"/><circle cx="364" cy="86" r="1" fill="#00e5ff" opacity="0.16"/><circle cx="591" cy="75" r="1" fill="#00e5ff" opacity="0.32"/><circle cx="818" cy="64" r="1" fill="#00e5ff" opacity="0.16"/><circle cx="1045" cy="53" r="1" fill="#00e5ff" opacity="0.16"/><circle cx="1272" cy="150" r="1.6" fill="#00e5ff" opacity="0.32"/><circle cx="1499" cy="139" r="1" fill="#00e5ff" opacity="0.16"/><circle cx="1726" cy="128" r="1" fill="#00e5ff" opacity="0.16"/><circle cx="107" cy="117" r="1" fill="#00e5ff" opacity="0.32"/><circle cx="334" cy="106" r="1" fill="#00e5ff" opacity="0.16"/><circle cx="561" cy="95" r="1.6" fill="#00e5ff" opacity="0.16"/><circle cx="788" cy="84" r="1" fill="#00e5ff" opacity="0.32"/><circle cx="1015" cy="73" r="1" fill="#00e5ff" opacity="0.16"/><circle cx="1242" cy="62" r="1" fill="#00e5ff" opacity="0.16"/><circle cx="1469" cy="51" r="1" fill="#00e5ff" opacity="0.32"/><circle cx="1696" cy="148" r="1.6" fill="#00e5ff" opacity="0.16"/><circle cx="77" cy="137" r="1" fill="#00e5ff" opacity="0.16"/><circle cx="304" cy="126" r="1" fill="#00e5ff" opacity="0.32"/><circle cx="531" cy="115" r="1" fill="#00e5ff" opacity="0.16"/><circle cx="758" cy="104" r="1" fill="#00e5ff" opacity="0.16"/><circle cx="985" cy="93" r="1.6" fill="#00e5ff" opacity="0.32"/>
  </g>

  <g>
    <animateTransform attributeName="transform" type="translate" dur="10.14s" repeatCount="indefinite"
      calcMode="linear" values="0 0;0 0;0 0;0 0;0 0;0 0;0 0;0 0;0 0;0 0;0 0;0 0;0 0;0 0;0 0;0 0;0 0;0 0;0 0;0 0;0 0;0 0;0 0;0 0;0 0;0 0;0 0;0 0;0 0;0 0;0 0;0 0;0 0;0 0;0 0;0 0;0 0;0 0;0 0;0 0;0 0;0 0;0 0;0 0;0 0;0 0;0 0;0 0;0 0;0 0;0 0;0 0;-2.57 0;-6.14 0;-9.71 0;-13.29 0;-16.86 0;-20.43 0;-24 0;-27.57 0;-31.14 0;-34.71 0;-38.29 0;-41.86 0;-45.43 0;-49 0;-49 0;-52.57 0;-56.14 0;-59.71 0;-63.29 0;-66.86 0;-70.43 0;-74 0;-77.57 0;-81.14 0;-84.71 0;-86 0;-86 0;-86 0;-86 0;-86 0;-86 0;-86 0;-86 0;-86 0;-86 0;-86 0;-86 0;-86 0;-86 0;-86 0;-86 0;-86 0;-86 0;-86 0;-86 0;-86 0;-86 0;-86 0;-86 0;-86 0;-86 0;-86 0;-86 0;-86 0;-86 0;-86 0;-86 0;-86 0;-86 0;-86 0;-86 0;-86 0;-86 0;-86 0;-86 0;-86 0;-86 0;-86 0;-86 0;-86 0;-86 0;-86 0;-86 0;-86 0;-86 0;-86 0;-86 0;-86 0;-86 0;-86 0;-86 0;-86 0;-86 0;-86 0;-86 0;-86 0;-86 0;-86 0;-86 0;-86 0;-86 0" keyTimes="0;0.0217;0.0242;0.0267;0.0292;0.03169;0.03419;0.03669;0.03918;0.04168;0.04418;0.04667;0.04917;0.05167;0.05416;0.05666;0.07837;0.08584;0.09331;0.10079;0.10826;0.12997;0.1327;0.13543;0.13816;0.14089;0.14362;0.14636;0.14909;0.15182;0.15455;0.15728;0.16001;0.16274;0.16548;0.16821;0.18991;0.19258;0.19524;0.1979;0.20057;0.20323;0.20589;0.20856;0.21122;0.21388;0.21655;0.21921;0.22187;0.22454;0.2272;0.24891;0.25169;0.25447;0.25725;0.26003;0.26281;0.26559;0.26837;0.27115;0.27393;0.27671;0.27949;0.28227;0.28506;0.28784;0.30954;0.31191;0.31428;0.31665;0.31902;0.32139;0.32376;0.32613;0.3285;0.33087;0.33324;0.33561;0.33798;0.34035;0.34272;0.36443;0.36762;0.37081;0.374;0.37719;0.38038;0.38358;0.38677;0.38996;0.39315;0.39634;0.39953;0.40272;0.40592;0.40911;0.43081;0.44397;0.45712;0.47028;0.48343;0.49658;0.50974;0.52289;0.53605;0.5492;0.56236;0.57551;0.58867;0.60182;0.61497;0.63668;0.63887;0.64107;0.64326;0.64546;0.64765;0.64984;0.65204;0.65423;0.65643;0.65862;0.66081;0.66301;0.6652;0.6674;0.6891;0.69848;0.70786;0.71725;0.72663;0.73601;0.74539;0.75477;0.76415;0.77353;0.78292;0.7923;0.80168;0.81106;0.82044;0.84215;1"/>

    <rect x="0" y="210" width="104" height="50" fill="#070a0f"/><line x1="0" y1="210" x2="0" y2="260" stroke="#ff2e88" stroke-width="2" opacity="0.5"/><line x1="104" y1="210" x2="104" y2="260" stroke="#ff2e88" stroke-width="2" opacity="0.5"/><text x="52" y="234" text-anchor="middle" class="gap">5 QUIET DAYS</text><rect x="104" y="186.31" width="50" height="73.69" fill="#0f5563" fill-opacity="0.9"/><rect x="104" y="186.31" width="50" height="3.5" fill="#00e5ff"/><text x="129" y="206.31" text-anchor="middle" class="cnt">2</text><text x="129" y="252" text-anchor="middle" class="mon">06-27</text><rect x="154" y="210" width="50" height="50" fill="#16323d"/><rect x="154" y="210" width="50" height="2.5" fill="#1d4757"/><text x="179" y="252" text-anchor="middle" class="mon">06-28</text><rect x="204" y="210" width="50" height="50" fill="#16323d"/><rect x="204" y="210" width="50" height="2.5" fill="#1d4757"/><text x="229" y="252" text-anchor="middle" class="mon">06-29</text><rect x="254" y="170.92" width="50" height="89.08" fill="#0d6b7d" fill-opacity="0.9"/><rect x="254" y="170.92" width="50" height="3.5" fill="#00e5ff"/><text x="279" y="190.92" text-anchor="middle" class="cnt">6</text><text x="279" y="252" text-anchor="middle" class="mon">06-30</text><rect x="304" y="136.31" width="50" height="123.69" fill="#b8880a" fill-opacity="0.9"/><rect x="304" y="136.31" width="50" height="3.5" fill="#ffd400"/><text x="329" y="156.31" text-anchor="middle" class="cnt">15</text><text x="329" y="252" text-anchor="middle" class="mon">07-01</text><rect x="354" y="178.62" width="50" height="81.38" fill="#0d6b7d" fill-opacity="0.9"/><rect x="354" y="178.62" width="50" height="3.5" fill="#00e5ff"/><text x="379" y="198.62" text-anchor="middle" class="cnt">4</text><text x="379" y="252" text-anchor="middle" class="mon">07-02</text><rect x="404" y="163.23" width="50" height="96.77" fill="#9c1f5a" fill-opacity="0.9"/><rect x="404" y="163.23" width="50" height="3.5" fill="#ff2e88"/><text x="429" y="183.23" text-anchor="middle" class="cnt">8</text><text x="429" y="252" text-anchor="middle" class="mon">07-03</text><rect x="454" y="94" width="50" height="166" fill="#b8880a" fill-opacity="0.9"/><rect x="454" y="94" width="50" height="3.5" fill="#ffd400"/><text x="479" y="114" text-anchor="middle" class="cnt">26</text><text x="479" y="252" text-anchor="middle" class="mon">07-04</text><rect x="504" y="210" width="104" height="50" fill="#070a0f"/><line x1="504" y1="210" x2="504" y2="260" stroke="#ff2e88" stroke-width="2" opacity="0.5"/><line x1="608" y1="210" x2="608" y2="260" stroke="#ff2e88" stroke-width="2" opacity="0.5"/><text x="556" y="234" text-anchor="middle" class="gap">16 QUIET DAYS</text><rect x="608" y="182.46" width="50" height="77.54" fill="#0f5563" fill-opacity="0.9"/><rect x="608" y="182.46" width="50" height="3.5" fill="#00e5ff"/><text x="633" y="202.46" text-anchor="middle" class="cnt">3</text><text x="633" y="252" text-anchor="middle" class="mon">07-21</text><rect x="658" y="178.62" width="50" height="81.38" fill="#0d6b7d" fill-opacity="0.9"/><rect x="658" y="178.62" width="50" height="3.5" fill="#00e5ff"/><text x="683" y="198.62" text-anchor="middle" class="cnt">4</text><text x="683" y="252" text-anchor="middle" class="mon">07-22</text><rect x="708" y="210" width="104" height="50" fill="#070a0f"/><line x1="708" y1="210" x2="708" y2="260" stroke="#ff2e88" stroke-width="2" opacity="0.5"/><line x1="812" y1="210" x2="812" y2="260" stroke="#ff2e88" stroke-width="2" opacity="0.5"/><text x="760" y="234" text-anchor="middle" class="gap">20 QUIET DAYS</text><rect x="812" y="186.31" width="50" height="73.69" fill="#0f5563" fill-opacity="0.9"/><rect x="812" y="186.31" width="50" height="3.5" fill="#00e5ff"/><text x="837" y="206.31" text-anchor="middle" class="cnt">2</text><text x="837" y="252" text-anchor="middle" class="mon">08-12</text><rect x="862" y="210" width="104" height="50" fill="#070a0f"/><line x1="862" y1="210" x2="862" y2="260" stroke="#ff2e88" stroke-width="2" opacity="0.5"/><line x1="966" y1="210" x2="966" y2="260" stroke="#ff2e88" stroke-width="2" opacity="0.5"/><text x="914" y="234" text-anchor="middle" class="gap">4 QUIET DAYS</text>
    <g><path d="M129 162.31L134 168.31L129 174.31L124 168.31Z" fill="#ffd400" filter="url(#g1)"><animate attributeName="opacity" calcMode="discrete" dur="10.14s" repeatCount="indefinite" values="1;0" keyTimes="0;0"/><animateTransform attributeName="transform" type="translate" dur="1.5s" repeatCount="indefinite" values="0 0;0 -4;0 0" keyTimes="0;0.5;1"/></path><circle cx="129" cy="168.31" r="3" fill="none" stroke="#ffd400" stroke-width="2" opacity="0"><animate attributeName="r" dur="10.14s" repeatCount="indefinite" calcMode="linear" values="3;3;20" keyTimes="0;0;0.0217"/><animate attributeName="opacity" dur="10.14s" repeatCount="indefinite" calcMode="linear" values="0;0.9;0" keyTimes="0;0;0.0217"/></circle></g><g><path d="M279 146.92L284 152.92L279 158.92L274 152.92Z" fill="#ffd400" filter="url(#g1)"><animate attributeName="opacity" calcMode="discrete" dur="10.14s" repeatCount="indefinite" values="1;0" keyTimes="0;0.16821"/><animateTransform attributeName="transform" type="translate" dur="1.5s" repeatCount="indefinite" values="0 0;0 -4;0 0" keyTimes="0;0.5;1"/></path><circle cx="279" cy="152.92" r="3" fill="none" stroke="#ffd400" stroke-width="2" opacity="0"><animate attributeName="r" dur="10.14s" repeatCount="indefinite" calcMode="linear" values="3;3;20" keyTimes="0;0.16821;0.18991"/><animate attributeName="opacity" dur="10.14s" repeatCount="indefinite" calcMode="linear" values="0;0.9;0" keyTimes="0;0.16821;0.18991"/></circle></g><g><path d="M329 112.31L334 118.31L329 124.31L324 118.31Z" fill="#ffd400" filter="url(#g1)"><animate attributeName="opacity" calcMode="discrete" dur="10.14s" repeatCount="indefinite" values="1;0" keyTimes="0;0.2272"/><animateTransform attributeName="transform" type="translate" dur="1.5s" repeatCount="indefinite" values="0 0;0 -4;0 0" keyTimes="0;0.5;1"/></path><circle cx="329" cy="118.31" r="3" fill="none" stroke="#ffd400" stroke-width="2" opacity="0"><animate attributeName="r" dur="10.14s" repeatCount="indefinite" calcMode="linear" values="3;3;20" keyTimes="0;0.2272;0.24891"/><animate attributeName="opacity" dur="10.14s" repeatCount="indefinite" calcMode="linear" values="0;0.9;0" keyTimes="0;0.2272;0.24891"/></circle></g><g><path d="M379 154.62L384 160.62L379 166.62L374 160.62Z" fill="#ffd400" filter="url(#g1)"><animate attributeName="opacity" calcMode="discrete" dur="10.14s" repeatCount="indefinite" values="1;0" keyTimes="0;0.28784"/><animateTransform attributeName="transform" type="translate" dur="1.5s" repeatCount="indefinite" values="0 0;0 -4;0 0" keyTimes="0;0.5;1"/></path><circle cx="379" cy="160.62" r="3" fill="none" stroke="#ffd400" stroke-width="2" opacity="0"><animate attributeName="r" dur="10.14s" repeatCount="indefinite" calcMode="linear" values="3;3;20" keyTimes="0;0.28784;0.30954"/><animate attributeName="opacity" dur="10.14s" repeatCount="indefinite" calcMode="linear" values="0;0.9;0" keyTimes="0;0.28784;0.30954"/></circle></g><g><path d="M429 139.23L434 145.23L429 151.23L424 145.23Z" fill="#ffd400" filter="url(#g1)"><animate attributeName="opacity" calcMode="discrete" dur="10.14s" repeatCount="indefinite" values="1;0" keyTimes="0;0.34272"/><animateTransform attributeName="transform" type="translate" dur="1.5s" repeatCount="indefinite" values="0 0;0 -4;0 0" keyTimes="0;0.5;1"/></path><circle cx="429" cy="145.23" r="3" fill="none" stroke="#ffd400" stroke-width="2" opacity="0"><animate attributeName="r" dur="10.14s" repeatCount="indefinite" calcMode="linear" values="3;3;20" keyTimes="0;0.34272;0.36443"/><animate attributeName="opacity" dur="10.14s" repeatCount="indefinite" calcMode="linear" values="0;0.9;0" keyTimes="0;0.34272;0.36443"/></circle></g><g><path d="M479 70L484 76L479 82L474 76Z" fill="#ffd400" filter="url(#g1)"><animate attributeName="opacity" calcMode="discrete" dur="10.14s" repeatCount="indefinite" values="1;0" keyTimes="0;0.40911"/><animateTransform attributeName="transform" type="translate" dur="1.5s" repeatCount="indefinite" values="0 0;0 -4;0 0" keyTimes="0;0.5;1"/></path><circle cx="479" cy="76" r="3" fill="none" stroke="#ffd400" stroke-width="2" opacity="0"><animate attributeName="r" dur="10.14s" repeatCount="indefinite" calcMode="linear" values="3;3;20" keyTimes="0;0.40911;0.43081"/><animate attributeName="opacity" dur="10.14s" repeatCount="indefinite" calcMode="linear" values="0;0.9;0" keyTimes="0;0.40911;0.43081"/></circle></g><g><path d="M633 158.46L638 164.46L633 170.46L628 164.46Z" fill="#ffd400" filter="url(#g1)"><animate attributeName="opacity" calcMode="discrete" dur="10.14s" repeatCount="indefinite" values="1;0" keyTimes="0;0.61497"/><animateTransform attributeName="transform" type="translate" dur="1.5s" repeatCount="indefinite" values="0 0;0 -4;0 0" keyTimes="0;0.5;1"/></path><circle cx="633" cy="164.46" r="3" fill="none" stroke="#ffd400" stroke-width="2" opacity="0"><animate attributeName="r" dur="10.14s" repeatCount="indefinite" calcMode="linear" values="3;3;20" keyTimes="0;0.61497;0.63668"/><animate attributeName="opacity" dur="10.14s" repeatCount="indefinite" calcMode="linear" values="0;0.9;0" keyTimes="0;0.61497;0.63668"/></circle></g><g><path d="M683 154.62L688 160.62L683 166.62L678 160.62Z" fill="#ffd400" filter="url(#g1)"><animate attributeName="opacity" calcMode="discrete" dur="10.14s" repeatCount="indefinite" values="1;0" keyTimes="0;0.6674"/><animateTransform attributeName="transform" type="translate" dur="1.5s" repeatCount="indefinite" values="0 0;0 -4;0 0" keyTimes="0;0.5;1"/></path><circle cx="683" cy="160.62" r="3" fill="none" stroke="#ffd400" stroke-width="2" opacity="0"><animate attributeName="r" dur="10.14s" repeatCount="indefinite" calcMode="linear" values="3;3;20" keyTimes="0;0.6674;0.6891"/><animate attributeName="opacity" dur="10.14s" repeatCount="indefinite" calcMode="linear" values="0;0.9;0" keyTimes="0;0.6674;0.6891"/></circle></g><g><path d="M837 162.31L842 168.31L837 174.31L832 168.31Z" fill="#ffd400" filter="url(#g1)"><animate attributeName="opacity" calcMode="discrete" dur="10.14s" repeatCount="indefinite" values="1;0" keyTimes="0;0.82044"/><animateTransform attributeName="transform" type="translate" dur="1.5s" repeatCount="indefinite" values="0 0;0 -4;0 0" keyTimes="0;0.5;1"/></path><circle cx="837" cy="168.31" r="3" fill="none" stroke="#ffd400" stroke-width="2" opacity="0"><animate attributeName="r" dur="10.14s" repeatCount="indefinite" calcMode="linear" values="3;3;20" keyTimes="0;0.82044;0.84215"/><animate attributeName="opacity" dur="10.14s" repeatCount="indefinite" calcMode="linear" values="0;0.9;0" keyTimes="0;0.82044;0.84215"/></circle></g>

    <g filter="url(#g2)">
      <g>
        <animateTransform attributeName="transform" type="translate" dur="10.14s" repeatCount="indefinite"
          calcMode="linear" values="115.35 154.81;115.35 154.81;118.92 146.71;122.49 140.12;126.06 135.04;129.64 131.46;133.21 129.38;136.78 128.82;140.35 129.76;143.92 132.2;147.49 136.15;151.06 141.61;154.64 148.57;158.21 157.04;161.78 167.02;165.35 178.5;165.35 178.5;177.85 167.25;190.35 163.5;202.85 167.25;215.35 178.5;215.35 178.5;218.92 164.21;222.49 151.69;226.06 140.93;229.64 131.95;233.21 124.73;236.78 119.29;240.35 115.61;243.92 113.71;247.49 113.57;251.06 115.2;254.64 118.6;258.21 123.77;261.78 130.71;265.35 139.42;265.35 139.42;268.92 125.94;272.49 114.15;276.06 104.05;279.64 95.65;283.21 88.95;286.78 83.93;290.35 80.61;293.92 78.99;297.49 79.06;301.06 80.82;304.64 84.27;308.21 89.42;311.78 96.27;315.35 104.81;315.35 104.81;318.92 95.98;322.49 88.98;326.06 83.8;329.64 80.44;333.21 78.91;336.78 79.19;340.35 81.31;343.92 85.24;347.49 90.99;351.06 98.57;354.64 107.97;358.21 119.2;361.78 132.25;365.35 147.12;365.35 147.12;368.92 137.19;372.49 128.63;376.06 121.43;379.64 115.58;383.21 111.08;386.78 107.95;390.35 106.17;393.92 105.75;397.49 106.69;401.06 108.98;404.64 112.63;408.21 117.64;411.78 124.01;415.35 131.73;415.35 131.73;418.92 116.29;422.49 102.46;426.06 90.25;429.64 79.66;433.21 70.67;436.78 63.31;440.35 57.55;443.92 53.42;447.49 50.89;451.06 49.99;454.64 50.69;458.21 53.01;461.78 56.95;465.35 62.5;465.35 62.5;476.35 56.57;487.35 52.53;498.35 50.37;509.35 50.1;520.35 51.71;531.35 55.2;542.35 60.58;553.35 67.84;564.35 76.98;575.35 88.01;586.35 100.92;597.35 115.72;608.35 132.4;619.35 150.96;619.35 150.96;622.92 143.29;626.49 136.75;630.06 131.35;633.64 127.09;637.21 123.97;640.78 121.99;644.35 121.15;647.92 121.44;651.49 122.87;655.06 125.45;658.64 129.16;662.21 134;665.78 139.99;669.35 147.12;669.35 147.12;680.35 132.33;691.35 119.91;702.35 109.85;713.35 102.14;724.35 96.79;735.35 93.81;746.35 93.18;757.35 94.9;768.35 98.99;779.35 105.44;790.35 114.24;801.35 125.41;812.35 138.93;823.35 154.81;823.35 154.81;823.35 154.81" keyTimes="0;0.0217;0.0242;0.0267;0.0292;0.03169;0.03419;0.03669;0.03918;0.04168;0.04418;0.04667;0.04917;0.05167;0.05416;0.05666;0.07837;0.08584;0.09331;0.10079;0.10826;0.12997;0.1327;0.13543;0.13816;0.14089;0.14362;0.14636;0.14909;0.15182;0.15455;0.15728;0.16001;0.16274;0.16548;0.16821;0.18991;0.19258;0.19524;0.1979;0.20057;0.20323;0.20589;0.20856;0.21122;0.21388;0.21655;0.21921;0.22187;0.22454;0.2272;0.24891;0.25169;0.25447;0.25725;0.26003;0.26281;0.26559;0.26837;0.27115;0.27393;0.27671;0.27949;0.28227;0.28506;0.28784;0.30954;0.31191;0.31428;0.31665;0.31902;0.32139;0.32376;0.32613;0.3285;0.33087;0.33324;0.33561;0.33798;0.34035;0.34272;0.36443;0.36762;0.37081;0.374;0.37719;0.38038;0.38358;0.38677;0.38996;0.39315;0.39634;0.39953;0.40272;0.40592;0.40911;0.43081;0.44397;0.45712;0.47028;0.48343;0.49658;0.50974;0.52289;0.53605;0.5492;0.56236;0.57551;0.58867;0.60182;0.61497;0.63668;0.63887;0.64107;0.64326;0.64546;0.64765;0.64984;0.65204;0.65423;0.65643;0.65862;0.66081;0.66301;0.6652;0.6674;0.6891;0.69848;0.70786;0.71725;0.72663;0.73601;0.74539;0.75477;0.76415;0.77353;0.78292;0.7923;0.80168;0.81106;0.82044;0.84215;1"/>
        <g transform="scale(2.1)">
          <g><g opacity="0"><path d="M4 0h4v1h-4zM3 1h1v1h-1zM8 1h1v1h-1zM3 2h1v1h-1zM8 2h1v1h-1zM3 3h1v1h-1zM8 3h1v1h-1zM4 4h4v1h-4zM3 5h6v1h-6zM2 6h2v1h-2zM5 6h2v1h-2zM8 6h2v1h-2zM1 7h2v1h-2zM5 7h2v1h-2zM9 7h2v1h-2zM0 8h2v1h-2zM5 8h2v1h-2zM10 8h2v1h-2zM5 9h2v1h-2zM4 10h4v1h-4zM3 11h2v1h-2zM7 11h2v1h-2zM2 12h2v1h-2zM8 12h2v1h-2zM1 13h2v1h-2zM9 13h2v1h-2z" fill="#00e5ff"/><path d="M4 1h4v1h-4zM4 2h1v1h-1zM7 2h1v1h-1zM4 3h4v1h-4z" fill="#08323d"/><path d="M5 2h2v1h-2z" fill="#ffffff"/><animate attributeName="opacity" calcMode="discrete" dur="0.34s" repeatCount="indefinite" values="1;0;0;0" keyTimes="0;0.25;0.5;0.75"/></g><g opacity="0"><path d="M4 0h4v1h-4zM3 1h1v1h-1zM8 1h1v1h-1zM3 2h1v1h-1zM8 2h1v1h-1zM3 3h1v1h-1zM8 3h1v1h-1zM4 4h4v1h-4zM3 5h6v1h-6zM2 6h2v1h-2zM5 6h2v1h-2zM8 6h2v1h-2zM2 7h2v1h-2zM5 7h2v1h-2zM8 7h2v1h-2zM3 8h1v1h-1zM5 8h2v1h-2zM8 8h1v1h-1zM5 9h2v1h-2zM4 10h4v1h-4zM4 11h4v1h-4zM3 12h2v1h-2zM7 12h2v1h-2zM2 13h2v1h-2zM8 13h2v1h-2z" fill="#00e5ff"/><path d="M4 1h4v1h-4zM4 2h1v1h-1zM7 2h1v1h-1zM4 3h4v1h-4z" fill="#08323d"/><path d="M5 2h2v1h-2z" fill="#ffffff"/><animate attributeName="opacity" calcMode="discrete" dur="0.34s" repeatCount="indefinite" values="0;1;0;0" keyTimes="0;0.25;0.5;0.75"/></g><g opacity="0"><path d="M4 0h4v1h-4zM3 1h1v1h-1zM8 1h1v1h-1zM3 2h1v1h-1zM8 2h1v1h-1zM3 3h1v1h-1zM8 3h1v1h-1zM4 4h4v1h-4zM3 5h6v1h-6zM3 6h1v1h-1zM5 6h2v1h-2zM8 6h1v1h-1zM3 7h1v1h-1zM5 7h2v1h-2zM8 7h1v1h-1zM5 8h2v1h-2zM5 9h2v1h-2zM4 10h4v1h-4zM4 11h1v1h-1zM7 11h1v1h-1zM3 12h2v1h-2zM8 12h2v1h-2zM2 13h2v1h-2zM10 13h2v1h-2z" fill="#00e5ff"/><path d="M4 1h4v1h-4zM4 2h1v1h-1zM7 2h1v1h-1zM4 3h4v1h-4z" fill="#08323d"/><path d="M5 2h2v1h-2z" fill="#ffffff"/><animate attributeName="opacity" calcMode="discrete" dur="0.34s" repeatCount="indefinite" values="0;0;1;0" keyTimes="0;0.25;0.5;0.75"/></g><g opacity="0"><path d="M4 0h4v1h-4zM3 1h1v1h-1zM8 1h1v1h-1zM3 2h1v1h-1zM8 2h1v1h-1zM3 3h1v1h-1zM8 3h1v1h-1zM4 4h4v1h-4zM3 5h6v1h-6zM2 6h2v1h-2zM5 6h2v1h-2zM8 6h2v1h-2zM2 7h2v1h-2zM5 7h2v1h-2zM8 7h2v1h-2zM3 8h1v1h-1zM5 8h2v1h-2zM8 8h1v1h-1zM5 9h2v1h-2zM4 10h4v1h-4zM3 11h2v1h-2zM7 11h2v1h-2zM3 12h2v1h-2zM7 12h2v1h-2zM2 13h2v1h-2zM8 13h2v1h-2z" fill="#00e5ff"/><path d="M4 1h4v1h-4zM4 2h1v1h-1zM7 2h1v1h-1zM4 3h4v1h-4z" fill="#08323d"/><path d="M5 2h2v1h-2z" fill="#ffffff"/><animate attributeName="opacity" calcMode="discrete" dur="0.34s" repeatCount="indefinite" values="0;0;0;1" keyTimes="0;0.25;0.5;0.75"/></g><animate attributeName="opacity" dur="10.14s" repeatCount="indefinite" calcMode="linear" values="1;1;0;0;0;0;0;0;0;0;0;0;0;0;0;1;1;1;1;1;1;1;0;0;0;0;0;0;0;0;0;0;0;0;0;1;1;0;0;0;0;0;0;0;0;0;0;0;0;0;1;1;0;0;0;0;0;0;0;0;0;0;0;0;0;1;1;0;0;0;0;0;0;0;0;0;0;0;0;0;1;1;0;0;0;0;0;0;0;0;0;0;0;0;0;1;1;0;0;0;0;0;0;0;0;0;0;0;0;0;1;1;0;0;0;0;0;0;0;0;0;0;0;0;0;1;1;0;0;0;0;0;0;0;0;0;0;0;0;0;1;1;1" keyTimes="0;0.0217;0.0242;0.0267;0.0292;0.03169;0.03419;0.03669;0.03918;0.04168;0.04418;0.04667;0.04917;0.05167;0.05416;0.05666;0.07837;0.08584;0.09331;0.10079;0.10826;0.12997;0.1327;0.13543;0.13816;0.14089;0.14362;0.14636;0.14909;0.15182;0.15455;0.15728;0.16001;0.16274;0.16548;0.16821;0.18991;0.19258;0.19524;0.1979;0.20057;0.20323;0.20589;0.20856;0.21122;0.21388;0.21655;0.21921;0.22187;0.22454;0.2272;0.24891;0.25169;0.25447;0.25725;0.26003;0.26281;0.26559;0.26837;0.27115;0.27393;0.27671;0.27949;0.28227;0.28506;0.28784;0.30954;0.31191;0.31428;0.31665;0.31902;0.32139;0.32376;0.32613;0.3285;0.33087;0.33324;0.33561;0.33798;0.34035;0.34272;0.36443;0.36762;0.37081;0.374;0.37719;0.38038;0.38358;0.38677;0.38996;0.39315;0.39634;0.39953;0.40272;0.40592;0.40911;0.43081;0.44397;0.45712;0.47028;0.48343;0.49658;0.50974;0.52289;0.53605;0.5492;0.56236;0.57551;0.58867;0.60182;0.61497;0.63668;0.63887;0.64107;0.64326;0.64546;0.64765;0.64984;0.65204;0.65423;0.65643;0.65862;0.66081;0.66301;0.6652;0.6674;0.6891;0.69848;0.70786;0.71725;0.72663;0.73601;0.74539;0.75477;0.76415;0.77353;0.78292;0.7923;0.80168;0.81106;0.82044;0.84215;1" calcMode="discrete"/></g>
          <g opacity="0"><path d="M4 0h4v1h-4zM3 1h1v1h-1zM8 1h1v1h-1zM3 2h1v1h-1zM8 2h1v1h-1zM3 3h1v1h-1zM8 3h1v1h-1zM0 4h2v1h-2zM4 4h4v1h-4zM10 4h2v1h-2zM1 5h10v1h-10zM2 6h2v1h-2zM5 6h2v1h-2zM8 6h2v1h-2zM3 7h1v1h-1zM5 7h2v1h-2zM8 7h1v1h-1zM5 8h2v1h-2zM4 9h4v1h-4zM3 10h2v1h-2zM7 10h2v1h-2zM2 11h2v1h-2zM8 11h2v1h-2zM2 12h1v1h-1zM9 12h1v1h-1zM1 13h2v1h-2zM9 13h2v1h-2z" fill="#00e5ff"/><path d="M4 1h4v1h-4zM4 2h1v1h-1zM7 2h1v1h-1zM4 3h4v1h-4z" fill="#08323d"/><path d="M5 2h2v1h-2z" fill="#ffffff"/><animate attributeName="opacity" dur="10.14s" repeatCount="indefinite" calcMode="linear" values="0;0;1;1;1;1;1;1;1;1;1;1;1;1;1;0;0;0;0;0;0;0;1;1;1;1;1;1;1;1;1;1;1;1;1;0;0;1;1;1;1;1;1;1;1;1;1;1;1;1;0;0;1;1;1;1;1;1;1;1;1;1;1;1;1;0;0;1;1;1;1;1;1;1;1;1;1;1;1;1;0;0;1;1;1;1;1;1;1;1;1;1;1;1;1;0;0;1;1;1;1;1;1;1;1;1;1;1;1;1;0;0;1;1;1;1;1;1;1;1;1;1;1;1;1;0;0;1;1;1;1;1;1;1;1;1;1;1;1;1;0;0;0" keyTimes="0;0.0217;0.0242;0.0267;0.0292;0.03169;0.03419;0.03669;0.03918;0.04168;0.04418;0.04667;0.04917;0.05167;0.05416;0.05666;0.07837;0.08584;0.09331;0.10079;0.10826;0.12997;0.1327;0.13543;0.13816;0.14089;0.14362;0.14636;0.14909;0.15182;0.15455;0.15728;0.16001;0.16274;0.16548;0.16821;0.18991;0.19258;0.19524;0.1979;0.20057;0.20323;0.20589;0.20856;0.21122;0.21388;0.21655;0.21921;0.22187;0.22454;0.2272;0.24891;0.25169;0.25447;0.25725;0.26003;0.26281;0.26559;0.26837;0.27115;0.27393;0.27671;0.27949;0.28227;0.28506;0.28784;0.30954;0.31191;0.31428;0.31665;0.31902;0.32139;0.32376;0.32613;0.3285;0.33087;0.33324;0.33561;0.33798;0.34035;0.34272;0.36443;0.36762;0.37081;0.374;0.37719;0.38038;0.38358;0.38677;0.38996;0.39315;0.39634;0.39953;0.40272;0.40592;0.40911;0.43081;0.44397;0.45712;0.47028;0.48343;0.49658;0.50974;0.52289;0.53605;0.5492;0.56236;0.57551;0.58867;0.60182;0.61497;0.63668;0.63887;0.64107;0.64326;0.64546;0.64765;0.64984;0.65204;0.65423;0.65643;0.65862;0.66081;0.66301;0.6652;0.6674;0.6891;0.69848;0.70786;0.71725;0.72663;0.73601;0.74539;0.75477;0.76415;0.77353;0.78292;0.7923;0.80168;0.81106;0.82044;0.84215;1" calcMode="discrete"/></g>
        </g>
      </g>
    </g>
  </g>
</g>

<rect x="1.5" y="1.5" width="877" height="257" rx="11" fill="none" stroke="url(#edge)" stroke-width="2.5" opacity="0.85"/>
<line x1="0" y1="42" x2="880" y2="42" stroke="#1d3540" stroke-width="1.5"/>
<rect x="2" y="2" width="876" height="39" fill="#070a0f" opacity="0.92"/>
<text x="20" y="28" class="title">COMMIT RUN</text>
<text x="188" y="28" class="hud">// 2026-06-22 → 2026-08-16 // 70 contributions this year</text>
<text x="860" y="28" text-anchor="end" class="score" opacity="0">000<animate attributeName="opacity" calcMode="discrete" dur="10.14s" repeatCount="indefinite" values="0;1;0" keyTimes="0;0;0"/></text><text x="860" y="28" text-anchor="end" class="score" opacity="0">002<animate attributeName="opacity" calcMode="discrete" dur="10.14s" repeatCount="indefinite" values="0;1;0" keyTimes="0;0;0.16821"/></text><text x="860" y="28" text-anchor="end" class="score" opacity="0">008<animate attributeName="opacity" calcMode="discrete" dur="10.14s" repeatCount="indefinite" values="0;1;0" keyTimes="0;0.16821;0.2272"/></text><text x="860" y="28" text-anchor="end" class="score" opacity="0">023<animate attributeName="opacity" calcMode="discrete" dur="10.14s" repeatCount="indefinite" values="0;1;0" keyTimes="0;0.2272;0.28784"/></text><text x="860" y="28" text-anchor="end" class="score" opacity="0">027<animate attributeName="opacity" calcMode="discrete" dur="10.14s" repeatCount="indefinite" values="0;1;0" keyTimes="0;0.28784;0.34272"/></text><text x="860" y="28" text-anchor="end" class="score" opacity="0">035<animate attributeName="opacity" calcMode="discrete" dur="10.14s" repeatCount="indefinite" values="0;1;0" keyTimes="0;0.34272;0.40911"/></text><text x="860" y="28" text-anchor="end" class="score" opacity="0">061<animate attributeName="opacity" calcMode="discrete" dur="10.14s" repeatCount="indefinite" values="0;1;0" keyTimes="0;0.40911;0.61497"/></text><text x="860" y="28" text-anchor="end" class="score" opacity="0">064<animate attributeName="opacity" calcMode="discrete" dur="10.14s" repeatCount="indefinite" values="0;1;0" keyTimes="0;0.61497;0.6674"/></text><text x="860" y="28" text-anchor="end" class="score" opacity="0">068<animate attributeName="opacity" calcMode="discrete" dur="10.14s" repeatCount="indefinite" values="0;1;0" keyTimes="0;0.6674;0.82044"/></text><text x="860" y="28" text-anchor="end" class="score" opacity="0">070<animate attributeName="opacity" calcMode="discrete" dur="10.14s" repeatCount="indefinite" values="0;1;0" keyTimes="0;0.82044;1"/></text>
</svg>
