<svg xmlns="http://www.w3.org/2000/svg" viewBox="0 0 880 260" width="880" height="260" role="img" aria-label="COMMIT RUN — a pixel runner crossing a landscape built from KevinD003's real GitHub contribution history, 2026-07-15 to 2026-09-08.">
<defs>
  <filter id="g1" x="-80%" y="-80%" width="260%" height="260%">
    <feGaussianBlur stdDeviation="2.6" result="b"/><feMerge><feMergeNode in="b"/><feMergeNode in="SourceGraphic"/></feMerge>
  </filter>
  <filter id="g2" x="-60%" y="-60%" width="220%" height="220%">
    <feGaussianBlur stdDeviation="1.7" result="b"/><feMerge><feMergeNode in="b"/><feMergeNode in="SourceGraphic"/></feMerge>
  </filter>
  <linearGradient id="sky" x1="0" y1="0" x2="0" y2="1">
    <stop offset="0%" stop-color="#0d1a24"/><stop offset="100%" stop-color="#0a0e14"/>
  </linearGradient>
  <linearGradient id="horizon" x1="0" y1="0" x2="0" y2="1">
    <stop offset="0%" stop-color="#00e5ff" stop-opacity="0"/><stop offset="100%" stop-color="#00e5ff" stop-opacity="0.10"/>
  </linearGradient>
  <linearGradient id="edge" x1="0" y1="0" x2="1" y2="1">
    <stop offset="0%" stop-color="#00e5ff"/><stop offset="50%" stop-color="#ff2e88"/><stop offset="100%" stop-color="#ffd400"/>
  </linearGradient>
  <clipPath id="view"><rect x="0" y="42" width="880" height="218"/></clipPath>
  <style>
    .hud{font-family:"SFMono-Regular",Consolas,Menlo,monospace;font-size:14px;fill:#7fa6b4;letter-spacing:2px}
    .title{font-family:"SFMono-Regular",Consolas,Menlo,monospace;font-size:17px;font-weight:700;fill:#00e5ff;letter-spacing:5px}
    .score{font-family:"SFMono-Regular",Consolas,Menlo,monospace;font-size:18px;font-weight:700;fill:#ffd400;letter-spacing:3px}
    .cnt{font-family:"SFMono-Regular",Consolas,Menlo,monospace;font-size:11px;font-weight:700;fill:#04141a}
    .mon{font-family:"SFMono-Regular",Consolas,Menlo,monospace;font-size:9px;fill:#7fa6b4;opacity:.6;letter-spacing:.5px}
    .gap{font-family:"SFMono-Regular",Consolas,Menlo,monospace;font-size:10px;font-weight:700;fill:#ff2e88;opacity:.75;letter-spacing:1px}
  </style>
</defs>

<rect width="880" height="260" rx="12" fill="url(#sky)"/>
<rect x="0" y="164" width="880" height="46" fill="url(#horizon)"/>

<g clip-path="url(#view)">
  <g>
    <animateTransform attributeName="transform" type="translate" dur="15.72s" repeatCount="indefinite"
      calcMode="linear" values="0 0;0 0;0 0;0 0;0 0;0 0;0 0;0 0;0 0;0 0;0 0;0 0;0 0;0 0;0 0;0 0;0 0;0 0;0 0;0 0;0 0;0 0;0 0;0 0;0 0;0 0;0 0;0 0;0 0;0 0;-1.05 0;-1.05 0;-5.42 0;-9.8 0;-14.17 0;-18.55 0;-18.55 0;-19.8 0;-21.05 0;-22.3 0;-23.55 0;-24.8 0;-26.05 0;-27.3 0;-28.55 0;-29.8 0;-31.05 0;-32.3 0;-33.55 0;-34.8 0;-36.05 0;-36.05 0;-40.42 0;-44.8 0;-49.17 0;-53.55 0;-53.55 0;-54.8 0;-56.05 0;-57.3 0;-58.55 0;-59.8 0;-61.05 0;-62.3 0;-63.55 0;-64.8 0;-66.05 0;-67.3 0;-68.55 0;-69.8 0;-71.05 0;-71.05 0;-72.3 0;-73.55 0;-74.8 0;-76.05 0;-77.3 0;-78.55 0;-79.8 0;-81.05 0;-82.3 0;-83.55 0;-84.8 0;-86.05 0;-87.3 0;-88.55 0;-88.55 0;-92.4 0;-96.25 0;-100.1 0;-103.95 0;-107.8 0;-111.65 0;-115.5 0;-119.35 0;-123.2 0;-127.05 0;-130.9 0;-134.75 0;-138.6 0;-142.45 0;-142.45 0;-143.7 0;-144.95 0;-146.2 0;-147.45 0;-148.7 0;-149.95 0;-151.2 0;-152.45 0;-152.6 0;-152.6 0;-152.6 0;-152.6 0;-152.6 0;-152.6 0;-152.6 0;-152.6 0;-152.6 0;-152.6 0;-152.6 0;-152.6 0;-152.6 0;-152.6 0;-152.6 0;-152.6 0;-152.6 0;-152.6 0;-152.6 0;-152.6 0;-152.6 0;-152.6 0;-152.6 0;-152.6 0;-152.6 0;-152.6 0;-152.6 0;-152.6 0;-152.6 0;-152.6 0;-152.6 0;-152.6 0;-152.6 0;-152.6 0;-152.6 0;-152.6 0;-152.6 0;-152.6 0;-152.6 0;-152.6 0;-152.6 0;-152.6 0;-152.6 0;-152.6 0;-152.6 0;-152.6 0;-152.6 0;-152.6 0;-152.6 0;-152.6 0;-152.6 0;-152.6 0;-152.6 0;-152.6 0;-152.6 0;-152.6 0;-152.6 0;-152.6 0;-152.6 0;-152.6 0;-152.6 0;-152.6 0;-152.6 0;-152.6 0;-152.6 0;-152.6 0;-152.6 0;-152.6 0;-152.6 0;-152.6 0;-152.6 0;-152.6 0;-152.6 0;-152.6 0;-152.6 0;-152.6 0;-152.6 0;-152.6 0;-152.6 0;-152.6 0;-152.6 0;-152.6 0;-152.6 0;-152.6 0;-152.6 0;-152.6 0;-152.6 0;-152.6 0;-152.6 0;-152.6 0;-152.6 0;-152.6 0;-152.6 0;-152.6 0;-152.6 0;-152.6 0;-152.6 0;-152.6 0;-152.6 0;-152.6 0;-152.6 0;-152.6 0;-152.6 0;-152.6 0;-152.6 0;-152.6 0;-152.6 0;-152.6 0" keyTimes="0;0.01399;0.01547;0.01694;0.01842;0.01989;0.02136;0.02284;0.02431;0.02579;0.02726;0.02874;0.03021;0.03169;0.03316;0.03464;0.04863;0.05535;0.06207;0.0688;0.07552;0.08224;0.08897;0.09569;0.10241;0.10913;0.11586;0.12258;0.1293;0.13603;0.14275;0.15674;0.16156;0.16637;0.17119;0.17601;0.19;0.19163;0.19327;0.1949;0.19653;0.19816;0.19979;0.20143;0.20306;0.20469;0.20632;0.20795;0.20959;0.21122;0.21285;0.22684;0.23166;0.23648;0.2413;0.24611;0.2601;0.26233;0.26455;0.26677;0.26899;0.27121;0.27344;0.27566;0.27788;0.2801;0.28232;0.28455;0.28677;0.28899;0.29121;0.3052;0.30697;0.30874;0.31051;0.31228;0.31405;0.31582;0.31759;0.31936;0.32113;0.3229;0.32467;0.32644;0.32821;0.32998;0.34397;0.3513;0.35863;0.36596;0.37328;0.38061;0.38794;0.39527;0.4026;0.40993;0.41726;0.42458;0.43191;0.43924;0.44657;0.46056;0.46288;0.4652;0.46752;0.46984;0.47216;0.47448;0.4768;0.47912;0.48144;0.48376;0.48608;0.48841;0.49073;0.49305;0.50704;0.51185;0.51667;0.52149;0.52631;0.5403;0.54282;0.54533;0.54785;0.55037;0.55288;0.5554;0.55792;0.56043;0.56295;0.56547;0.56799;0.5705;0.57302;0.57554;0.58953;0.5911;0.59267;0.59425;0.59582;0.59739;0.59897;0.60054;0.60211;0.60369;0.60526;0.60683;0.60841;0.60998;0.61155;0.62554;0.63348;0.64141;0.64934;0.65728;0.66521;0.67315;0.68108;0.68902;0.69695;0.70488;0.71282;0.72075;0.72869;0.73662;0.75061;0.75238;0.75415;0.75592;0.75769;0.75946;0.76123;0.763;0.76477;0.76654;0.76831;0.77008;0.77185;0.77362;0.77539;0.78938;0.79085;0.79233;0.7938;0.79528;0.79675;0.79823;0.7997;0.80118;0.80265;0.80413;0.8056;0.80708;0.80855;0.81003;0.82402;0.82594;0.82787;0.8298;0.83173;0.83365;0.83558;0.83751;0.83943;0.84136;0.84329;0.84522;0.84714;0.84907;0.851;0.86499;0.86981;0.87462;0.87944;0.88426;0.89825;1"/>
    <circle cx="0" cy="48" r="1.6" fill="#00e5ff" opacity="0.32"/><circle cx="227" cy="145" r="1" fill="#00e5ff" opacity="0.16"/><circle cx="454" cy="134" r="1" fill="#00e5ff" opacity="0.16"/><circle cx="681" cy="123" r="1" fill="#00e5ff" opacity="0.32"/><circle cx="908" cy="112" r="1" fill="#00e5ff" opacity="0.16"/><circle cx="1135" cy="101" r="1.6" fill="#00e5ff" opacity="0.16"/><circle cx="1362" cy="90" r="1" fill="#00e5ff" opacity="0.32"/><circle cx="1589" cy="79" r="1" fill="#00e5ff" opacity="0.16"/><circle cx="1816" cy="68" r="1" fill="#00e5ff" opacity="0.16"/><circle cx="2043" cy="57" r="1" fill="#00e5ff" opacity="0.32"/><circle cx="74" cy="154" r="1.6" fill="#00e5ff" opacity="0.16"/><circle cx="301" cy="143" r="1" fill="#00e5ff" opacity="0.16"/><circle cx="528" cy="132" r="1" fill="#00e5ff" opacity="0.32"/><circle cx="755" cy="121" r="1" fill="#00e5ff" opacity="0.16"/><circle cx="982" cy="110" r="1" fill="#00e5ff" opacity="0.16"/><circle cx="1209" cy="99" r="1.6" fill="#00e5ff" opacity="0.32"/><circle cx="1436" cy="88" r="1" fill="#00e5ff" opacity="0.16"/><circle cx="1663" cy="77" r="1" fill="#00e5ff" opacity="0.16"/><circle cx="1890" cy="66" r="1" fill="#00e5ff" opacity="0.32"/><circle cx="2117" cy="55" r="1" fill="#00e5ff" opacity="0.16"/><circle cx="148" cy="152" r="1.6" fill="#00e5ff" opacity="0.16"/><circle cx="375" cy="141" r="1" fill="#00e5ff" opacity="0.32"/><circle cx="602" cy="130" r="1" fill="#00e5ff" opacity="0.16"/><circle cx="829" cy="119" r="1" fill="#00e5ff" opacity="0.16"/><circle cx="1056" cy="108" r="1" fill="#00e5ff" opacity="0.32"/><circle cx="1283" cy="97" r="1.6" fill="#00e5ff" opacity="0.16"/><circle cx="1510" cy="86" r="1" fill="#00e5ff" opacity="0.16"/><circle cx="1737" cy="75" r="1" fill="#00e5ff" opacity="0.32"/><circle cx="1964" cy="64" r="1" fill="#00e5ff" opacity="0.16"/><circle cx="2191" cy="53" r="1" fill="#00e5ff" opacity="0.16"/><circle cx="222" cy="150" r="1.6" fill="#00e5ff" opacity="0.32"/><circle cx="449" cy="139" r="1" fill="#00e5ff" opacity="0.16"/><circle cx="676" cy="128" r="1" fill="#00e5ff" opacity="0.16"/><circle cx="903" cy="117" r="1" fill="#00e5ff" opacity="0.32"/><circle cx="1130" cy="106" r="1" fill="#00e5ff" opacity="0.16"/><circle cx="1357" cy="95" r="1.6" fill="#00e5ff" opacity="0.16"/><circle cx="1584" cy="84" r="1" fill="#00e5ff" opacity="0.32"/><circle cx="1811" cy="73" r="1" fill="#00e5ff" opacity="0.16"/><circle cx="2038" cy="62" r="1" fill="#00e5ff" opacity="0.16"/><circle cx="69" cy="51" r="1" fill="#00e5ff" opacity="0.32"/><circle cx="296" cy="148" r="1.6" fill="#00e5ff" opacity="0.16"/><circle cx="523" cy="137" r="1" fill="#00e5ff" opacity="0.16"/><circle cx="750" cy="126" r="1" fill="#00e5ff" opacity="0.32"/><circle cx="977" cy="115" r="1" fill="#00e5ff" opacity="0.16"/><circle cx="1204" cy="104" r="1" fill="#00e5ff" opacity="0.16"/><circle cx="1431" cy="93" r="1.6" fill="#00e5ff" opacity="0.32"/>
  </g>

  <g>
    <animateTransform attributeName="transform" type="translate" dur="15.72s" repeatCount="indefinite"
      calcMode="linear" values="0 0;0 0;0 0;0 0;0 0;0 0;0 0;0 0;0 0;0 0;0 0;0 0;0 0;0 0;0 0;0 0;0 0;0 0;0 0;0 0;0 0;0 0;0 0;0 0;0 0;0 0;0 0;0 0;0 0;0 0;-3 0;-3 0;-15.5 0;-28 0;-40.5 0;-53 0;-53 0;-56.57 0;-60.14 0;-63.71 0;-67.29 0;-70.86 0;-74.43 0;-78 0;-81.57 0;-85.14 0;-88.71 0;-92.29 0;-95.86 0;-99.43 0;-103 0;-103 0;-115.5 0;-128 0;-140.5 0;-153 0;-153 0;-156.57 0;-160.14 0;-163.71 0;-167.29 0;-170.86 0;-174.43 0;-178 0;-181.57 0;-185.14 0;-188.71 0;-192.29 0;-195.86 0;-199.43 0;-203 0;-203 0;-206.57 0;-210.14 0;-213.71 0;-217.29 0;-220.86 0;-224.43 0;-228 0;-231.57 0;-235.14 0;-238.71 0;-242.29 0;-245.86 0;-249.43 0;-253 0;-253 0;-264 0;-275 0;-286 0;-297 0;-308 0;-319 0;-330 0;-341 0;-352 0;-363 0;-374 0;-385 0;-396 0;-407 0;-407 0;-410.57 0;-414.14 0;-417.71 0;-421.29 0;-424.86 0;-428.43 0;-432 0;-435.57 0;-436 0;-436 0;-436 0;-436 0;-436 0;-436 0;-436 0;-436 0;-436 0;-436 0;-436 0;-436 0;-436 0;-436 0;-436 0;-436 0;-436 0;-436 0;-436 0;-436 0;-436 0;-436 0;-436 0;-436 0;-436 0;-436 0;-436 0;-436 0;-436 0;-436 0;-436 0;-436 0;-436 0;-436 0;-436 0;-436 0;-436 0;-436 0;-436 0;-436 0;-436 0;-436 0;-436 0;-436 0;-436 0;-436 0;-436 0;-436 0;-436 0;-436 0;-436 0;-436 0;-436 0;-436 0;-436 0;-436 0;-436 0;-436 0;-436 0;-436 0;-436 0;-436 0;-436 0;-436 0;-436 0;-436 0;-436 0;-436 0;-436 0;-436 0;-436 0;-436 0;-436 0;-436 0;-436 0;-436 0;-436 0;-436 0;-436 0;-436 0;-436 0;-436 0;-436 0;-436 0;-436 0;-436 0;-436 0;-436 0;-436 0;-436 0;-436 0;-436 0;-436 0;-436 0;-436 0;-436 0;-436 0;-436 0;-436 0;-436 0;-436 0;-436 0;-436 0;-436 0;-436 0;-436 0;-436 0;-436 0" keyTimes="0;0.01399;0.01547;0.01694;0.01842;0.01989;0.02136;0.02284;0.02431;0.02579;0.02726;0.02874;0.03021;0.03169;0.03316;0.03464;0.04863;0.05535;0.06207;0.0688;0.07552;0.08224;0.08897;0.09569;0.10241;0.10913;0.11586;0.12258;0.1293;0.13603;0.14275;0.15674;0.16156;0.16637;0.17119;0.17601;0.19;0.19163;0.19327;0.1949;0.19653;0.19816;0.19979;0.20143;0.20306;0.20469;0.20632;0.20795;0.20959;0.21122;0.21285;0.22684;0.23166;0.23648;0.2413;0.24611;0.2601;0.26233;0.26455;0.26677;0.26899;0.27121;0.27344;0.27566;0.27788;0.2801;0.28232;0.28455;0.28677;0.28899;0.29121;0.3052;0.30697;0.30874;0.31051;0.31228;0.31405;0.31582;0.31759;0.31936;0.32113;0.3229;0.32467;0.32644;0.32821;0.32998;0.34397;0.3513;0.35863;0.36596;0.37328;0.38061;0.38794;0.39527;0.4026;0.40993;0.41726;0.42458;0.43191;0.43924;0.44657;0.46056;0.46288;0.4652;0.46752;0.46984;0.47216;0.47448;0.4768;0.47912;0.48144;0.48376;0.48608;0.48841;0.49073;0.49305;0.50704;0.51185;0.51667;0.52149;0.52631;0.5403;0.54282;0.54533;0.54785;0.55037;0.55288;0.5554;0.55792;0.56043;0.56295;0.56547;0.56799;0.5705;0.57302;0.57554;0.58953;0.5911;0.59267;0.59425;0.59582;0.59739;0.59897;0.60054;0.60211;0.60369;0.60526;0.60683;0.60841;0.60998;0.61155;0.62554;0.63348;0.64141;0.64934;0.65728;0.66521;0.67315;0.68108;0.68902;0.69695;0.70488;0.71282;0.72075;0.72869;0.73662;0.75061;0.75238;0.75415;0.75592;0.75769;0.75946;0.76123;0.763;0.76477;0.76654;0.76831;0.77008;0.77185;0.77362;0.77539;0.78938;0.79085;0.79233;0.7938;0.79528;0.79675;0.79823;0.7997;0.80118;0.80265;0.80413;0.8056;0.80708;0.80855;0.81003;0.82402;0.82594;0.82787;0.8298;0.83173;0.83365;0.83558;0.83751;0.83943;0.84136;0.84329;0.84522;0.84714;0.84907;0.851;0.86499;0.86981;0.87462;0.87944;0.88426;0.89825;1"/>

    <rect x="0" y="210" width="104" height="50" fill="#070a0f"/><line x1="0" y1="210" x2="0" y2="260" stroke="#ff2e88" stroke-width="2" opacity="0.5"/><line x1="104" y1="210" x2="104" y2="260" stroke="#ff2e88" stroke-width="2" opacity="0.5"/><text x="52" y="234" text-anchor="middle" class="gap">6 QUIET DAYS</text><rect x="104" y="164" width="50" height="96" fill="#0f5563" fill-opacity="0.9"/><rect x="104" y="164" width="50" height="3.5" fill="#00e5ff"/><text x="129" y="184" text-anchor="middle" class="cnt">3</text><text x="129" y="252" text-anchor="middle" class="mon">07-21</text><rect x="154" y="154" width="50" height="106" fill="#0d6b7d" fill-opacity="0.9"/><rect x="154" y="154" width="50" height="3.5" fill="#00e5ff"/><text x="179" y="174" text-anchor="middle" class="cnt">4</text><text x="179" y="252" text-anchor="middle" class="mon">07-22</text><rect x="204" y="210" width="104" height="50" fill="#070a0f"/><line x1="204" y1="210" x2="204" y2="260" stroke="#ff2e88" stroke-width="2" opacity="0.5"/><line x1="308" y1="210" x2="308" y2="260" stroke="#ff2e88" stroke-width="2" opacity="0.5"/><text x="256" y="234" text-anchor="middle" class="gap">20 QUIET DAYS</text><rect x="308" y="184" width="50" height="76" fill="#0f5563" fill-opacity="0.9"/><rect x="308" y="184" width="50" height="3.5" fill="#00e5ff"/><text x="333" y="204" text-anchor="middle" class="cnt">1</text><text x="333" y="252" text-anchor="middle" class="mon">08-12</text><rect x="358" y="184" width="50" height="76" fill="#0f5563" fill-opacity="0.9"/><rect x="358" y="184" width="50" height="3.5" fill="#00e5ff"/><text x="383" y="204" text-anchor="middle" class="cnt">1</text><text x="383" y="252" text-anchor="middle" class="mon">08-13</text><rect x="408" y="210" width="50" height="50" fill="#16323d"/><rect x="408" y="210" width="50" height="2.5" fill="#1d4757"/><text x="433" y="252" text-anchor="middle" class="mon">08-14</text><rect x="458" y="210" width="50" height="50" fill="#16323d"/><rect x="458" y="210" width="50" height="2.5" fill="#1d4757"/><text x="483" y="252" text-anchor="middle" class="mon">08-15</text><rect x="508" y="124" width="50" height="136" fill="#0d6b7d" fill-opacity="0.9"/><rect x="508" y="124" width="50" height="3.5" fill="#00e5ff"/><text x="533" y="144" text-anchor="middle" class="cnt">7</text><text x="533" y="252" text-anchor="middle" class="mon">08-16</text><rect x="558" y="164" width="50" height="96" fill="#0f5563" fill-opacity="0.9"/><rect x="558" y="164" width="50" height="3.5" fill="#00e5ff"/><text x="583" y="184" text-anchor="middle" class="cnt">3</text><text x="583" y="252" text-anchor="middle" class="mon">08-17</text><rect x="608" y="210" width="104" height="50" fill="#070a0f"/><line x1="608" y1="210" x2="608" y2="260" stroke="#ff2e88" stroke-width="2" opacity="0.5"/><line x1="712" y1="210" x2="712" y2="260" stroke="#ff2e88" stroke-width="2" opacity="0.5"/><text x="660" y="234" text-anchor="middle" class="gap">7 QUIET DAYS</text><rect x="712" y="114" width="50" height="146" fill="#9c1f5a" fill-opacity="0.9"/><rect x="712" y="114" width="50" height="3.5" fill="#ff2e88"/><text x="737" y="134" text-anchor="middle" class="cnt">8</text><text x="737" y="252" text-anchor="middle" class="mon">08-25</text><rect x="762" y="210" width="50" height="50" fill="#16323d"/><rect x="762" y="210" width="50" height="2.5" fill="#1d4757"/><text x="787" y="252" text-anchor="middle" class="mon">08-26</text><rect x="812" y="210" width="50" height="50" fill="#16323d"/><rect x="812" y="210" width="50" height="2.5" fill="#1d4757"/><text x="837" y="252" text-anchor="middle" class="mon">08-27</text><rect x="862" y="94" width="50" height="166" fill="#9c1f5a" fill-opacity="0.9"/><rect x="862" y="94" width="50" height="3.5" fill="#ff2e88"/><text x="887" y="114" text-anchor="middle" class="cnt">10</text><text x="887" y="252" text-anchor="middle" class="mon">08-28</text><rect x="912" y="114" width="50" height="146" fill="#9c1f5a" fill-opacity="0.9"/><rect x="912" y="114" width="50" height="3.5" fill="#ff2e88"/><text x="937" y="134" text-anchor="middle" class="cnt">8</text><text x="937" y="252" text-anchor="middle" class="mon">08-29</text><rect x="962" y="210" width="104" height="50" fill="#070a0f"/><line x1="962" y1="210" x2="962" y2="260" stroke="#ff2e88" stroke-width="2" opacity="0.5"/><line x1="1066" y1="210" x2="1066" y2="260" stroke="#ff2e88" stroke-width="2" opacity="0.5"/><text x="1014" y="234" text-anchor="middle" class="gap">5 QUIET DAYS</text><rect x="1066" y="184" width="50" height="76" fill="#0f5563" fill-opacity="0.9"/><rect x="1066" y="184" width="50" height="3.5" fill="#00e5ff"/><text x="1091" y="204" text-anchor="middle" class="cnt">1</text><text x="1091" y="252" text-anchor="middle" class="mon">09-04</text><rect x="1116" y="144" width="50" height="116" fill="#0d6b7d" fill-opacity="0.9"/><rect x="1116" y="144" width="50" height="3.5" fill="#00e5ff"/><text x="1141" y="164" text-anchor="middle" class="cnt">5</text><text x="1141" y="252" text-anchor="middle" class="mon">09-05</text><rect x="1166" y="154" width="50" height="106" fill="#0d6b7d" fill-opacity="0.9"/><rect x="1166" y="154" width="50" height="3.5" fill="#00e5ff"/><text x="1191" y="174" text-anchor="middle" class="cnt">4</text><text x="1191" y="252" text-anchor="middle" class="mon">09-06</text><rect x="1216" y="210" width="50" height="50" fill="#16323d"/><rect x="1216" y="210" width="50" height="2.5" fill="#1d4757"/><text x="1241" y="252" text-anchor="middle" class="mon">09-07</text><rect x="1266" y="210" width="50" height="50" fill="#16323d"/><rect x="1266" y="210" width="50" height="2.5" fill="#1d4757"/><text x="1291" y="252" text-anchor="middle" class="mon">09-08</text>
    <g><path d="M129 140L134 146L129 152L124 146Z" fill="#ffd400" filter="url(#g1)"><animate attributeName="opacity" calcMode="discrete" dur="15.72s" repeatCount="indefinite" values="1;0" keyTimes="0;0"/><animateTransform attributeName="transform" type="translate" dur="1.5s" repeatCount="indefinite" values="0 0;0 -4;0 0" keyTimes="0;0.5;1"/></path><circle cx="129" cy="146" r="3" fill="none" stroke="#ffd400" stroke-width="2" opacity="0"><animate attributeName="r" dur="15.72s" repeatCount="indefinite" calcMode="linear" values="3;3;20" keyTimes="0;0;0.01399"/><animate attributeName="opacity" dur="15.72s" repeatCount="indefinite" calcMode="linear" values="0;0.9;0" keyTimes="0;0;0.01399"/></circle></g><g><path d="M179 130L184 136L179 142L174 136Z" fill="#ffd400" filter="url(#g1)"><animate attributeName="opacity" calcMode="discrete" dur="15.72s" repeatCount="indefinite" values="1;0" keyTimes="0;0.03464"/><animateTransform attributeName="transform" type="translate" dur="1.5s" repeatCount="indefinite" values="0 0;0 -4;0 0" keyTimes="0;0.5;1"/></path><circle cx="179" cy="136" r="3" fill="none" stroke="#ffd400" stroke-width="2" opacity="0"><animate attributeName="r" dur="15.72s" repeatCount="indefinite" calcMode="linear" values="3;3;20" keyTimes="0;0.03464;0.04863"/><animate attributeName="opacity" dur="15.72s" repeatCount="indefinite" calcMode="linear" values="0;0.9;0" keyTimes="0;0.03464;0.04863"/></circle></g><g><path d="M333 160L338 166L333 172L328 166Z" fill="#ffd400" filter="url(#g1)"><animate attributeName="opacity" calcMode="discrete" dur="15.72s" repeatCount="indefinite" values="1;0" keyTimes="0;0.14275"/><animateTransform attributeName="transform" type="translate" dur="1.5s" repeatCount="indefinite" values="0 0;0 -4;0 0" keyTimes="0;0.5;1"/></path><circle cx="333" cy="166" r="3" fill="none" stroke="#ffd400" stroke-width="2" opacity="0"><animate attributeName="r" dur="15.72s" repeatCount="indefinite" calcMode="linear" values="3;3;20" keyTimes="0;0.14275;0.15674"/><animate attributeName="opacity" dur="15.72s" repeatCount="indefinite" calcMode="linear" values="0;0.9;0" keyTimes="0;0.14275;0.15674"/></circle></g><g><path d="M383 160L388 166L383 172L378 166Z" fill="#ffd400" filter="url(#g1)"><animate attributeName="opacity" calcMode="discrete" dur="15.72s" repeatCount="indefinite" values="1;0" keyTimes="0;0.17601"/><animateTransform attributeName="transform" type="translate" dur="1.5s" repeatCount="indefinite" values="0 0;0 -4;0 0" keyTimes="0;0.5;1"/></path><circle cx="383" cy="166" r="3" fill="none" stroke="#ffd400" stroke-width="2" opacity="0"><animate attributeName="r" dur="15.72s" repeatCount="indefinite" calcMode="linear" values="3;3;20" keyTimes="0;0.17601;0.19"/><animate attributeName="opacity" dur="15.72s" repeatCount="indefinite" calcMode="linear" values="0;0.9;0" keyTimes="0;0.17601;0.19"/></circle></g><g><path d="M533 100L538 106L533 112L528 106Z" fill="#ffd400" filter="url(#g1)"><animate attributeName="opacity" calcMode="discrete" dur="15.72s" repeatCount="indefinite" values="1;0" keyTimes="0;0.29121"/><animateTransform attributeName="transform" type="translate" dur="1.5s" repeatCount="indefinite" values="0 0;0 -4;0 0" keyTimes="0;0.5;1"/></path><circle cx="533" cy="106" r="3" fill="none" stroke="#ffd400" stroke-width="2" opacity="0"><animate attributeName="r" dur="15.72s" repeatCount="indefinite" calcMode="linear" values="3;3;20" keyTimes="0;0.29121;0.3052"/><animate attributeName="opacity" dur="15.72s" repeatCount="indefinite" calcMode="linear" values="0;0.9;0" keyTimes="0;0.29121;0.3052"/></circle></g><g><path d="M583 140L588 146L583 152L578 146Z" fill="#ffd400" filter="url(#g1)"><animate attributeName="opacity" calcMode="discrete" dur="15.72s" repeatCount="indefinite" values="1;0" keyTimes="0;0.32998"/><animateTransform attributeName="transform" type="translate" dur="1.5s" repeatCount="indefinite" values="0 0;0 -4;0 0" keyTimes="0;0.5;1"/></path><circle cx="583" cy="146" r="3" fill="none" stroke="#ffd400" stroke-width="2" opacity="0"><animate attributeName="r" dur="15.72s" repeatCount="indefinite" calcMode="linear" values="3;3;20" keyTimes="0;0.32998;0.34397"/><animate attributeName="opacity" dur="15.72s" repeatCount="indefinite" calcMode="linear" values="0;0.9;0" keyTimes="0;0.32998;0.34397"/></circle></g><g><path d="M737 90L742 96L737 102L732 96Z" fill="#ffd400" filter="url(#g1)"><animate attributeName="opacity" calcMode="discrete" dur="15.72s" repeatCount="indefinite" values="1;0" keyTimes="0;0.44657"/><animateTransform attributeName="transform" type="translate" dur="1.5s" repeatCount="indefinite" values="0 0;0 -4;0 0" keyTimes="0;0.5;1"/></path><circle cx="737" cy="96" r="3" fill="none" stroke="#ffd400" stroke-width="2" opacity="0"><animate attributeName="r" dur="15.72s" repeatCount="indefinite" calcMode="linear" values="3;3;20" keyTimes="0;0.44657;0.46056"/><animate attributeName="opacity" dur="15.72s" repeatCount="indefinite" calcMode="linear" values="0;0.9;0" keyTimes="0;0.44657;0.46056"/></circle></g><g><path d="M887 70L892 76L887 82L882 76Z" fill="#ffd400" filter="url(#g1)"><animate attributeName="opacity" calcMode="discrete" dur="15.72s" repeatCount="indefinite" values="1;0" keyTimes="0;0.57554"/><animateTransform attributeName="transform" type="translate" dur="1.5s" repeatCount="indefinite" values="0 0;0 -4;0 0" keyTimes="0;0.5;1"/></path><circle cx="887" cy="76" r="3" fill="none" stroke="#ffd400" stroke-width="2" opacity="0"><animate attributeName="r" dur="15.72s" repeatCount="indefinite" calcMode="linear" values="3;3;20" keyTimes="0;0.57554;0.58953"/><animate attributeName="opacity" dur="15.72s" repeatCount="indefinite" calcMode="linear" values="0;0.9;0" keyTimes="0;0.57554;0.58953"/></circle></g><g><path d="M937 90L942 96L937 102L932 96Z" fill="#ffd400" filter="url(#g1)"><animate attributeName="opacity" calcMode="discrete" dur="15.72s" repeatCount="indefinite" values="1;0" keyTimes="0;0.61155"/><animateTransform attributeName="transform" type="translate" dur="1.5s" repeatCount="indefinite" values="0 0;0 -4;0 0" keyTimes="0;0.5;1"/></path><circle cx="937" cy="96" r="3" fill="none" stroke="#ffd400" stroke-width="2" opacity="0"><animate attributeName="r" dur="15.72s" repeatCount="indefinite" calcMode="linear" values="3;3;20" keyTimes="0;0.61155;0.62554"/><animate attributeName="opacity" dur="15.72s" repeatCount="indefinite" calcMode="linear" values="0;0.9;0" keyTimes="0;0.61155;0.62554"/></circle></g><g><path d="M1091 160L1096 166L1091 172L1086 166Z" fill="#ffd400" filter="url(#g1)"><animate attributeName="opacity" calcMode="discrete" dur="15.72s" repeatCount="indefinite" values="1;0" keyTimes="0;0.73662"/><animateTransform attributeName="transform" type="translate" dur="1.5s" repeatCount="indefinite" values="0 0;0 -4;0 0" keyTimes="0;0.5;1"/></path><circle cx="1091" cy="166" r="3" fill="none" stroke="#ffd400" stroke-width="2" opacity="0"><animate attributeName="r" dur="15.72s" repeatCount="indefinite" calcMode="linear" values="3;3;20" keyTimes="0;0.73662;0.75061"/><animate attributeName="opacity" dur="15.72s" repeatCount="indefinite" calcMode="linear" values="0;0.9;0" keyTimes="0;0.73662;0.75061"/></circle></g><g><path d="M1141 120L1146 126L1141 132L1136 126Z" fill="#ffd400" filter="url(#g1)"><animate attributeName="opacity" calcMode="discrete" dur="15.72s" repeatCount="indefinite" values="1;0" keyTimes="0;0.77539"/><animateTransform attributeName="transform" type="translate" dur="1.5s" repeatCount="indefinite" values="0 0;0 -4;0 0" keyTimes="0;0.5;1"/></path><circle cx="1141" cy="126" r="3" fill="none" stroke="#ffd400" stroke-width="2" opacity="0"><animate attributeName="r" dur="15.72s" repeatCount="indefinite" calcMode="linear" values="3;3;20" keyTimes="0;0.77539;0.78938"/><animate attributeName="opacity" dur="15.72s" repeatCount="indefinite" calcMode="linear" values="0;0.9;0" keyTimes="0;0.77539;0.78938"/></circle></g><g><path d="M1191 130L1196 136L1191 142L1186 136Z" fill="#ffd400" filter="url(#g1)"><animate attributeName="opacity" calcMode="discrete" dur="15.72s" repeatCount="indefinite" values="1;0" keyTimes="0;0.81003"/><animateTransform attributeName="transform" type="translate" dur="1.5s" repeatCount="indefinite" values="0 0;0 -4;0 0" keyTimes="0;0.5;1"/></path><circle cx="1191" cy="136" r="3" fill="none" stroke="#ffd400" stroke-width="2" opacity="0"><animate attributeName="r" dur="15.72s" repeatCount="indefinite" calcMode="linear" values="3;3;20" keyTimes="0;0.81003;0.82402"/><animate attributeName="opacity" dur="15.72s" repeatCount="indefinite" calcMode="linear" values="0;0.9;0" keyTimes="0;0.81003;0.82402"/></circle></g>

    <g filter="url(#g2)">
      <g>
        <animateTransform attributeName="transform" type="translate" dur="15.72s" repeatCount="indefinite"
          calcMode="linear" values="115.35 132.5;115.35 132.5;118.92 123.62;122.49 115.99;126.06 109.62;129.64 104.5;133.21 100.65;136.78 98.05;140.35 96.7;143.92 96.62;147.49 97.79;151.06 100.22;154.64 103.9;158.21 108.84;161.78 115.04;165.35 122.5;165.35 122.5;176.35 106.55;187.35 93.39;198.35 83;209.35 75.41;220.35 70.59;231.35 68.56;242.35 69.31;253.35 72.84;264.35 79.16;275.35 88.26;286.35 100.15;297.35 114.81;308.35 132.27;319.35 152.5;319.35 152.5;331.85 141.25;344.35 137.5;356.85 141.25;369.35 152.5;369.35 152.5;372.92 144.31;376.49 137.66;380.06 132.56;383.64 129;387.21 126.99;390.78 126.53;394.35 127.61;397.92 130.24;401.49 134.42;405.06 140.14;408.64 147.41;412.21 156.23;415.78 166.59;419.35 178.5;419.35 178.5;431.85 167.25;444.35 163.5;456.85 167.25;469.35 178.5;469.35 178.5;472.92 156.04;476.49 136.09;480.06 118.65;483.64 103.72;487.21 91.31;490.78 81.4;494.35 74;497.92 69.11;501.49 66.73;505.06 66.87;508.64 69.51;512.21 74.66;515.78 82.33;519.35 92.5;519.35 92.5;522.92 83.75;526.49 76.79;530.06 71.62;533.64 68.23;537.21 66.62;540.78 66.8;544.35 68.77;547.92 72.52;551.49 78.05;555.06 85.37;558.64 94.48;562.21 105.37;565.78 118.04;569.35 132.5;569.35 132.5;580.35 114.43;591.35 98.58;602.35 84.97;613.35 73.59;624.35 64.44;635.35 57.52;646.35 52.84;657.35 50.38;668.35 50.16;679.35 52.16;690.35 56.4;701.35 62.87;712.35 71.57;723.35 82.5;723.35 82.5;726.92 72.07;730.49 64.3;734.06 59.19;737.64 56.73;741.21 56.94;744.78 59.81;748.35 65.34;751.92 73.52;755.49 84.37;759.06 97.88;762.64 114.04;766.21 132.87;769.78 154.35;773.35 178.5;773.35 178.5;785.85 167.25;798.35 163.5;810.85 167.25;823.35 178.5;823.35 178.5;826.92 155.54;830.49 134.84;834.06 116.39;837.64 100.2;841.21 86.27;844.78 74.6;848.35 65.19;851.92 58.03;855.49 53.13;859.06 50.49;862.64 50.11;866.21 51.98;869.78 56.11;873.35 62.5;873.35 62.5;876.92 58.27;880.49 54.91;884.06 52.42;887.64 50.8;891.21 50.05;894.78 50.17;898.35 51.17;901.92 53.03;905.49 55.77;909.06 59.37;912.64 63.85;916.21 69.19;919.78 75.41;923.35 82.5;923.35 82.5;934.35 70.89;945.35 61.83;956.35 55.33;967.35 51.38;978.35 49.99;989.35 51.16;1000.35 54.88;1011.35 61.16;1022.35 69.99;1033.35 81.38;1044.35 95.33;1055.35 111.83;1066.35 130.89;1077.35 152.5;1077.35 152.5;1080.92 138.04;1084.49 125.37;1088.06 114.48;1091.64 105.37;1095.21 98.05;1098.78 92.52;1102.35 88.77;1105.92 86.8;1109.49 86.62;1113.06 88.23;1116.64 91.62;1120.21 96.79;1123.78 103.75;1127.35 112.5;1127.35 112.5;1130.92 105.04;1134.49 98.84;1138.06 93.9;1141.64 90.22;1145.21 87.79;1148.78 86.62;1152.35 86.7;1155.92 88.05;1159.49 90.65;1163.06 94.5;1166.64 99.62;1170.21 105.99;1173.78 113.62;1177.35 122.5;1177.35 122.5;1180.92 113.21;1184.49 105.96;1188.06 100.76;1191.64 97.61;1195.21 96.49;1198.78 97.43;1202.35 100.41;1205.92 105.43;1209.49 112.49;1213.06 121.61;1216.64 132.76;1220.21 145.96;1223.78 161.21;1227.35 178.5;1227.35 178.5;1239.85 167.25;1252.35 163.5;1264.85 167.25;1277.35 178.5;1277.35 178.5;1277.35 178.5" keyTimes="0;0.01399;0.01547;0.01694;0.01842;0.01989;0.02136;0.02284;0.02431;0.02579;0.02726;0.02874;0.03021;0.03169;0.03316;0.03464;0.04863;0.05535;0.06207;0.0688;0.07552;0.08224;0.08897;0.09569;0.10241;0.10913;0.11586;0.12258;0.1293;0.13603;0.14275;0.15674;0.16156;0.16637;0.17119;0.17601;0.19;0.19163;0.19327;0.1949;0.19653;0.19816;0.19979;0.20143;0.20306;0.20469;0.20632;0.20795;0.20959;0.21122;0.21285;0.22684;0.23166;0.23648;0.2413;0.24611;0.2601;0.26233;0.26455;0.26677;0.26899;0.27121;0.27344;0.27566;0.27788;0.2801;0.28232;0.28455;0.28677;0.28899;0.29121;0.3052;0.30697;0.30874;0.31051;0.31228;0.31405;0.31582;0.31759;0.31936;0.32113;0.3229;0.32467;0.32644;0.32821;0.32998;0.34397;0.3513;0.35863;0.36596;0.37328;0.38061;0.38794;0.39527;0.4026;0.40993;0.41726;0.42458;0.43191;0.43924;0.44657;0.46056;0.46288;0.4652;0.46752;0.46984;0.47216;0.47448;0.4768;0.47912;0.48144;0.48376;0.48608;0.48841;0.49073;0.49305;0.50704;0.51185;0.51667;0.52149;0.52631;0.5403;0.54282;0.54533;0.54785;0.55037;0.55288;0.5554;0.55792;0.56043;0.56295;0.56547;0.56799;0.5705;0.57302;0.57554;0.58953;0.5911;0.59267;0.59425;0.59582;0.59739;0.59897;0.60054;0.60211;0.60369;0.60526;0.60683;0.60841;0.60998;0.61155;0.62554;0.63348;0.64141;0.64934;0.65728;0.66521;0.67315;0.68108;0.68902;0.69695;0.70488;0.71282;0.72075;0.72869;0.73662;0.75061;0.75238;0.75415;0.75592;0.75769;0.75946;0.76123;0.763;0.76477;0.76654;0.76831;0.77008;0.77185;0.77362;0.77539;0.78938;0.79085;0.79233;0.7938;0.79528;0.79675;0.79823;0.7997;0.80118;0.80265;0.80413;0.8056;0.80708;0.80855;0.81003;0.82402;0.82594;0.82787;0.8298;0.83173;0.83365;0.83558;0.83751;0.83943;0.84136;0.84329;0.84522;0.84714;0.84907;0.851;0.86499;0.86981;0.87462;0.87944;0.88426;0.89825;1"/>
        <g transform="scale(2.1)">
          <g><g opacity="0"><path d="M4 0h4v1h-4zM3 1h1v1h-1zM8 1h1v1h-1zM3 2h1v1h-1zM8 2h1v1h-1zM3 3h1v1h-1zM8 3h1v1h-1zM4 4h4v1h-4zM3 5h6v1h-6zM2 6h2v1h-2zM5 6h2v1h-2zM8 6h2v1h-2zM1 7h2v1h-2zM5 7h2v1h-2zM9 7h2v1h-2zM0 8h2v1h-2zM5 8h2v1h-2zM10 8h2v1h-2zM5 9h2v1h-2zM4 10h4v1h-4zM3 11h2v1h-2zM7 11h2v1h-2zM2 12h2v1h-2zM8 12h2v1h-2zM1 13h2v1h-2zM9 13h2v1h-2z" fill="#00e5ff"/><path d="M4 1h4v1h-4zM4 2h1v1h-1zM7 2h1v1h-1zM4 3h4v1h-4z" fill="#08323d"/><path d="M5 2h2v1h-2z" fill="#ffffff"/><animate attributeName="opacity" calcMode="discrete" dur="0.34s" repeatCount="indefinite" values="1;0;0;0" keyTimes="0;0.25;0.5;0.75"/></g><g opacity="0"><path d="M4 0h4v1h-4zM3 1h1v1h-1zM8 1h1v1h-1zM3 2h1v1h-1zM8 2h1v1h-1zM3 3h1v1h-1zM8 3h1v1h-1zM4 4h4v1h-4zM3 5h6v1h-6zM2 6h2v1h-2zM5 6h2v1h-2zM8 6h2v1h-2zM2 7h2v1h-2zM5 7h2v1h-2zM8 7h2v1h-2zM3 8h1v1h-1zM5 8h2v1h-2zM8 8h1v1h-1zM5 9h2v1h-2zM4 10h4v1h-4zM4 11h4v1h-4zM3 12h2v1h-2zM7 12h2v1h-2zM2 13h2v1h-2zM8 13h2v1h-2z" fill="#00e5ff"/><path d="M4 1h4v1h-4zM4 2h1v1h-1zM7 2h1v1h-1zM4 3h4v1h-4z" fill="#08323d"/><path d="M5 2h2v1h-2z" fill="#ffffff"/><animate attributeName="opacity" calcMode="discrete" dur="0.34s" repeatCount="indefinite" values="0;1;0;0" keyTimes="0;0.25;0.5;0.75"/></g><g opacity="0"><path d="M4 0h4v1h-4zM3 1h1v1h-1zM8 1h1v1h-1zM3 2h1v1h-1zM8 2h1v1h-1zM3 3h1v1h-1zM8 3h1v1h-1zM4 4h4v1h-4zM3 5h6v1h-6zM3 6h1v1h-1zM5 6h2v1h-2zM8 6h1v1h-1zM3 7h1v1h-1zM5 7h2v1h-2zM8 7h1v1h-1zM5 8h2v1h-2zM5 9h2v1h-2zM4 10h4v1h-4zM4 11h1v1h-1zM7 11h1v1h-1zM3 12h2v1h-2zM8 12h2v1h-2zM2 13h2v1h-2zM10 13h2v1h-2z" fill="#00e5ff"/><path d="M4 1h4v1h-4zM4 2h1v1h-1zM7 2h1v1h-1zM4 3h4v1h-4z" fill="#08323d"/><path d="M5 2h2v1h-2z" fill="#ffffff"/><animate attributeName="opacity" calcMode="discrete" dur="0.34s" repeatCount="indefinite" values="0;0;1;0" keyTimes="0;0.25;0.5;0.75"/></g><g opacity="0"><path d="M4 0h4v1h-4zM3 1h1v1h-1zM8 1h1v1h-1zM3 2h1v1h-1zM8 2h1v1h-1zM3 3h1v1h-1zM8 3h1v1h-1zM4 4h4v1h-4zM3 5h6v1h-6zM2 6h2v1h-2zM5 6h2v1h-2zM8 6h2v1h-2zM2 7h2v1h-2zM5 7h2v1h-2zM8 7h2v1h-2zM3 8h1v1h-1zM5 8h2v1h-2zM8 8h1v1h-1zM5 9h2v1h-2zM4 10h4v1h-4zM3 11h2v1h-2zM7 11h2v1h-2zM3 12h2v1h-2zM7 12h2v1h-2zM2 13h2v1h-2zM8 13h2v1h-2z" fill="#00e5ff"/><path d="M4 1h4v1h-4zM4 2h1v1h-1zM7 2h1v1h-1zM4 3h4v1h-4z" fill="#08323d"/><path d="M5 2h2v1h-2z" fill="#ffffff"/><animate attributeName="opacity" calcMode="discrete" dur="0.34s" repeatCount="indefinite" values="0;0;0;1" keyTimes="0;0.25;0.5;0.75"/></g><animate attributeName="opacity" dur="15.72s" repeatCount="indefinite" calcMode="discrete" values="1;1;0;0;0;0;0;0;0;0;0;0;0;0;0;1;1;0;0;0;0;0;0;0;0;0;0;0;0;0;1;1;1;1;1;1;1;0;0;0;0;0;0;0;0;0;0;0;0;0;1;1;1;1;1;1;1;0;0;0;0;0;0;0;0;0;0;0;0;0;1;1;0;0;0;0;0;0;0;0;0;0;0;0;0;1;1;0;0;0;0;0;0;0;0;0;0;0;0;0;1;1;0;0;0;0;0;0;0;0;0;0;0;0;0;1;1;1;1;1;1;1;0;0;0;0;0;0;0;0;0;0;0;0;0;1;1;0;0;0;0;0;0;0;0;0;0;0;0;0;1;1;0;0;0;0;0;0;0;0;0;0;0;0;0;1;1;0;0;0;0;0;0;0;0;0;0;0;0;0;1;1;0;0;0;0;0;0;0;0;0;0;0;0;0;1;1;0;0;0;0;0;0;0;0;0;0;0;0;0;1;1;1;1;1;1;1;1" keyTimes="0;0.01399;0.01547;0.01694;0.01842;0.01989;0.02136;0.02284;0.02431;0.02579;0.02726;0.02874;0.03021;0.03169;0.03316;0.03464;0.04863;0.05535;0.06207;0.0688;0.07552;0.08224;0.08897;0.09569;0.10241;0.10913;0.11586;0.12258;0.1293;0.13603;0.14275;0.15674;0.16156;0.16637;0.17119;0.17601;0.19;0.19163;0.19327;0.1949;0.19653;0.19816;0.19979;0.20143;0.20306;0.20469;0.20632;0.20795;0.20959;0.21122;0.21285;0.22684;0.23166;0.23648;0.2413;0.24611;0.2601;0.26233;0.26455;0.26677;0.26899;0.27121;0.27344;0.27566;0.27788;0.2801;0.28232;0.28455;0.28677;0.28899;0.29121;0.3052;0.30697;0.30874;0.31051;0.31228;0.31405;0.31582;0.31759;0.31936;0.32113;0.3229;0.32467;0.32644;0.32821;0.32998;0.34397;0.3513;0.35863;0.36596;0.37328;0.38061;0.38794;0.39527;0.4026;0.40993;0.41726;0.42458;0.43191;0.43924;0.44657;0.46056;0.46288;0.4652;0.46752;0.46984;0.47216;0.47448;0.4768;0.47912;0.48144;0.48376;0.48608;0.48841;0.49073;0.49305;0.50704;0.51185;0.51667;0.52149;0.52631;0.5403;0.54282;0.54533;0.54785;0.55037;0.55288;0.5554;0.55792;0.56043;0.56295;0.56547;0.56799;0.5705;0.57302;0.57554;0.58953;0.5911;0.59267;0.59425;0.59582;0.59739;0.59897;0.60054;0.60211;0.60369;0.60526;0.60683;0.60841;0.60998;0.61155;0.62554;0.63348;0.64141;0.64934;0.65728;0.66521;0.67315;0.68108;0.68902;0.69695;0.70488;0.71282;0.72075;0.72869;0.73662;0.75061;0.75238;0.75415;0.75592;0.75769;0.75946;0.76123;0.763;0.76477;0.76654;0.76831;0.77008;0.77185;0.77362;0.77539;0.78938;0.79085;0.79233;0.7938;0.79528;0.79675;0.79823;0.7997;0.80118;0.80265;0.80413;0.8056;0.80708;0.80855;0.81003;0.82402;0.82594;0.82787;0.8298;0.83173;0.83365;0.83558;0.83751;0.83943;0.84136;0.84329;0.84522;0.84714;0.84907;0.851;0.86499;0.86981;0.87462;0.87944;0.88426;0.89825;1"/></g>
          <g opacity="0"><path d="M4 0h4v1h-4zM3 1h1v1h-1zM8 1h1v1h-1zM3 2h1v1h-1zM8 2h1v1h-1zM3 3h1v1h-1zM8 3h1v1h-1zM0 4h2v1h-2zM4 4h4v1h-4zM10 4h2v1h-2zM1 5h10v1h-10zM2 6h2v1h-2zM5 6h2v1h-2zM8 6h2v1h-2zM3 7h1v1h-1zM5 7h2v1h-2zM8 7h1v1h-1zM5 8h2v1h-2zM4 9h4v1h-4zM3 10h2v1h-2zM7 10h2v1h-2zM2 11h2v1h-2zM8 11h2v1h-2zM2 12h1v1h-1zM9 12h1v1h-1zM1 13h2v1h-2zM9 13h2v1h-2z" fill="#00e5ff"/><path d="M4 1h4v1h-4zM4 2h1v1h-1zM7 2h1v1h-1zM4 3h4v1h-4z" fill="#08323d"/><path d="M5 2h2v1h-2z" fill="#ffffff"/><animate attributeName="opacity" dur="15.72s" repeatCount="indefinite" calcMode="discrete" values="0;0;1;1;1;1;1;1;1;1;1;1;1;1;1;0;0;1;1;1;1;1;1;1;1;1;1;1;1;1;0;0;0;0;0;0;0;1;1;1;1;1;1;1;1;1;1;1;1;1;0;0;0;0;0;0;0;1;1;1;1;1;1;1;1;1;1;1;1;1;0;0;1;1;1;1;1;1;1;1;1;1;1;1;1;0;0;1;1;1;1;1;1;1;1;1;1;1;1;1;0;0;1;1;1;1;1;1;1;1;1;1;1;1;1;0;0;0;0;0;0;0;1;1;1;1;1;1;1;1;1;1;1;1;1;0;0;1;1;1;1;1;1;1;1;1;1;1;1;1;0;0;1;1;1;1;1;1;1;1;1;1;1;1;1;0;0;1;1;1;1;1;1;1;1;1;1;1;1;1;0;0;1;1;1;1;1;1;1;1;1;1;1;1;1;0;0;1;1;1;1;1;1;1;1;1;1;1;1;1;0;0;0;0;0;0;0;0" keyTimes="0;0.01399;0.01547;0.01694;0.01842;0.01989;0.02136;0.02284;0.02431;0.02579;0.02726;0.02874;0.03021;0.03169;0.03316;0.03464;0.04863;0.05535;0.06207;0.0688;0.07552;0.08224;0.08897;0.09569;0.10241;0.10913;0.11586;0.12258;0.1293;0.13603;0.14275;0.15674;0.16156;0.16637;0.17119;0.17601;0.19;0.19163;0.19327;0.1949;0.19653;0.19816;0.19979;0.20143;0.20306;0.20469;0.20632;0.20795;0.20959;0.21122;0.21285;0.22684;0.23166;0.23648;0.2413;0.24611;0.2601;0.26233;0.26455;0.26677;0.26899;0.27121;0.27344;0.27566;0.27788;0.2801;0.28232;0.28455;0.28677;0.28899;0.29121;0.3052;0.30697;0.30874;0.31051;0.31228;0.31405;0.31582;0.31759;0.31936;0.32113;0.3229;0.32467;0.32644;0.32821;0.32998;0.34397;0.3513;0.35863;0.36596;0.37328;0.38061;0.38794;0.39527;0.4026;0.40993;0.41726;0.42458;0.43191;0.43924;0.44657;0.46056;0.46288;0.4652;0.46752;0.46984;0.47216;0.47448;0.4768;0.47912;0.48144;0.48376;0.48608;0.48841;0.49073;0.49305;0.50704;0.51185;0.51667;0.52149;0.52631;0.5403;0.54282;0.54533;0.54785;0.55037;0.55288;0.5554;0.55792;0.56043;0.56295;0.56547;0.56799;0.5705;0.57302;0.57554;0.58953;0.5911;0.59267;0.59425;0.59582;0.59739;0.59897;0.60054;0.60211;0.60369;0.60526;0.60683;0.60841;0.60998;0.61155;0.62554;0.63348;0.64141;0.64934;0.65728;0.66521;0.67315;0.68108;0.68902;0.69695;0.70488;0.71282;0.72075;0.72869;0.73662;0.75061;0.75238;0.75415;0.75592;0.75769;0.75946;0.76123;0.763;0.76477;0.76654;0.76831;0.77008;0.77185;0.77362;0.77539;0.78938;0.79085;0.79233;0.7938;0.79528;0.79675;0.79823;0.7997;0.80118;0.80265;0.80413;0.8056;0.80708;0.80855;0.81003;0.82402;0.82594;0.82787;0.8298;0.83173;0.83365;0.83558;0.83751;0.83943;0.84136;0.84329;0.84522;0.84714;0.84907;0.851;0.86499;0.86981;0.87462;0.87944;0.88426;0.89825;1"/></g>
        </g>
      </g>
    </g>
  </g>
</g>

<rect x="1.5" y="1.5" width="877" height="257" rx="11" fill="none" stroke="url(#edge)" stroke-width="2.5" opacity="0.85"/>
<line x1="0" y1="42" x2="880" y2="42" stroke="#1d3540" stroke-width="1.5"/>
<rect x="2" y="2" width="876" height="39" fill="#070a0f" opacity="0.92"/>
<text x="20" y="28" class="title">COMMIT RUN</text>
<text x="188" y="28" class="hud">// 2026-07-15 → 2026-09-08 // 116 contributions this year</text>
<text x="860" y="28" text-anchor="end" class="score" opacity="0">000<animate attributeName="opacity" calcMode="discrete" dur="15.72s" repeatCount="indefinite" values="0;1;0" keyTimes="0;0;0"/></text><text x="860" y="28" text-anchor="end" class="score" opacity="0">003<animate attributeName="opacity" calcMode="discrete" dur="15.72s" repeatCount="indefinite" values="0;1;0" keyTimes="0;0;0.03464"/></text><text x="860" y="28" text-anchor="end" class="score" opacity="0">007<animate attributeName="opacity" calcMode="discrete" dur="15.72s" repeatCount="indefinite" values="0;1;0" keyTimes="0;0.03464;0.14275"/></text><text x="860" y="28" text-anchor="end" class="score" opacity="0">008<animate attributeName="opacity" calcMode="discrete" dur="15.72s" repeatCount="indefinite" values="0;1;0" keyTimes="0;0.14275;0.17601"/></text><text x="860" y="28" text-anchor="end" class="score" opacity="0">009<animate attributeName="opacity" calcMode="discrete" dur="15.72s" repeatCount="indefinite" values="0;1;0" keyTimes="0;0.17601;0.29121"/></text><text x="860" y="28" text-anchor="end" class="score" opacity="0">016<animate attributeName="opacity" calcMode="discrete" dur="15.72s" repeatCount="indefinite" values="0;1;0" keyTimes="0;0.29121;0.32998"/></text><text x="860" y="28" text-anchor="end" class="score" opacity="0">019<animate attributeName="opacity" calcMode="discrete" dur="15.72s" repeatCount="indefinite" values="0;1;0" keyTimes="0;0.32998;0.44657"/></text><text x="860" y="28" text-anchor="end" class="score" opacity="0">027<animate attributeName="opacity" calcMode="discrete" dur="15.72s" repeatCount="indefinite" values="0;1;0" keyTimes="0;0.44657;0.57554"/></text><text x="860" y="28" text-anchor="end" class="score" opacity="0">037<animate attributeName="opacity" calcMode="discrete" dur="15.72s" repeatCount="indefinite" values="0;1;0" keyTimes="0;0.57554;0.61155"/></text><text x="860" y="28" text-anchor="end" class="score" opacity="0">045<animate attributeName="opacity" calcMode="discrete" dur="15.72s" repeatCount="indefinite" values="0;1;0" keyTimes="0;0.61155;0.73662"/></text><text x="860" y="28" text-anchor="end" class="score" opacity="0">046<animate attributeName="opacity" calcMode="discrete" dur="15.72s" repeatCount="indefinite" values="0;1;0" keyTimes="0;0.73662;0.77539"/></text><text x="860" y="28" text-anchor="end" class="score" opacity="0">051<animate attributeName="opacity" calcMode="discrete" dur="15.72s" repeatCount="indefinite" values="0;1;0" keyTimes="0;0.77539;0.81003"/></text><text x="860" y="28" text-anchor="end" class="score" opacity="0">055<animate attributeName="opacity" calcMode="discrete" dur="15.72s" repeatCount="indefinite" values="0;1;0" keyTimes="0;0.81003;1"/></text>
</svg>
