<svg xmlns="http://www.w3.org/2000/svg" viewBox="0 0 880 260" width="880" height="260" role="img" aria-label="COMMIT RUN — a pixel runner crossing a landscape built from KevinD003's real GitHub contribution history, 2026-08-14 to 2026-10-08.">
<defs>
  <filter id="g1" x="-80%" y="-80%" width="260%" height="260%">
    <feGaussianBlur stdDeviation="2.6" result="b"/><feMerge><feMergeNode in="b"/><feMergeNode in="SourceGraphic"/></feMerge>
  </filter>
  <filter id="g2" x="-60%" y="-60%" width="220%" height="220%">
    <feGaussianBlur stdDeviation="1.7" result="b"/><feMerge><feMergeNode in="b"/><feMergeNode in="SourceGraphic"/></feMerge>
  </filter>
  <linearGradient id="sky" x1="0" y1="0" x2="0" y2="1">
    <stop offset="0%" stop-color="#0d1a24"/><stop offset="100%" stop-color="#0a0e14"/>
  </linearGradient>
  <linearGradient id="horizon" x1="0" y1="0" x2="0" y2="1">
    <stop offset="0%" stop-color="#00e5ff" stop-opacity="0"/><stop offset="100%" stop-color="#00e5ff" stop-opacity="0.10"/>
  </linearGradient>
  <linearGradient id="edge" x1="0" y1="0" x2="1" y2="1">
    <stop offset="0%" stop-color="#00e5ff"/><stop offset="50%" stop-color="#ff2e88"/><stop offset="100%" stop-color="#ffd400"/>
  </linearGradient>
  <clipPath id="view"><rect x="0" y="42" width="880" height="218"/></clipPath>
  <style>
    .hud{font-family:"SFMono-Regular",Consolas,Menlo,monospace;font-size:14px;fill:#7fa6b4;letter-spacing:2px}
    .title{font-family:"SFMono-Regular",Consolas,Menlo,monospace;font-size:17px;font-weight:700;fill:#00e5ff;letter-spacing:5px}
    .score{font-family:"SFMono-Regular",Consolas,Menlo,monospace;font-size:18px;font-weight:700;fill:#ffd400;letter-spacing:3px}
    .cnt{font-family:"SFMono-Regular",Consolas,Menlo,monospace;font-size:11px;font-weight:700;fill:#04141a}
    .mon{font-family:"SFMono-Regular",Consolas,Menlo,monospace;font-size:9px;fill:#7fa6b4;opacity:.6;letter-spacing:.5px}
    .gap{font-family:"SFMono-Regular",Consolas,Menlo,monospace;font-size:10px;font-weight:700;fill:#ff2e88;opacity:.75;letter-spacing:1px}
  </style>
</defs>

<rect width="880" height="260" rx="12" fill="url(#sky)"/>
<rect x="0" y="164" width="880" height="46" fill="url(#horizon)"/>

<g clip-path="url(#view)">
  <g>
    <animateTransform attributeName="transform" type="translate" dur="17.82s" repeatCount="indefinite"
      calcMode="linear" values="0 0;0 0;0 0;0 0;0 0;0 0;0 0;0 0;0 0;0 0;0 0;0 0;0 0;0 0;0 0;0 0;0 0;0 0;0 0;0 0;0 0;0 0;0 0;0 0;0 0;0 0;0 0;0 0;0 0;0 0;0 0;0 0;0 0;0 0;0 0;0 0;0 0;0 0;0 0;0 0;0 0;0 0;0 0;0 0;0 0;0 0;0 0;0 0;0 0;0 0;0 0;0 0;-0.9 0;-2.15 0;-3.4 0;-4.65 0;-5.9 0;-7.15 0;-8.4 0;-9.65 0;-10.9 0;-12.15 0;-13.4 0;-14.65 0;-15.9 0;-17.15 0;-17.15 0;-21.52 0;-25.9 0;-30.27 0;-34.65 0;-34.65 0;-35.9 0;-37.15 0;-38.4 0;-39.65 0;-40.9 0;-42.15 0;-43.4 0;-44.65 0;-45.9 0;-47.15 0;-48.4 0;-49.65 0;-50.9 0;-52.15 0;-52.15 0;-53.4 0;-54.65 0;-55.9 0;-57.15 0;-58.4 0;-59.65 0;-60.9 0;-62.15 0;-63.4 0;-64.65 0;-65.9 0;-67.15 0;-68.4 0;-69.65 0;-69.65 0;-73.5 0;-77.35 0;-81.2 0;-85.05 0;-88.9 0;-92.75 0;-96.6 0;-100.45 0;-104.3 0;-108.15 0;-112 0;-115.85 0;-119.7 0;-123.55 0;-123.55 0;-124.8 0;-126.05 0;-127.3 0;-128.55 0;-129.8 0;-131.05 0;-132.3 0;-133.55 0;-134.8 0;-136.05 0;-137.3 0;-138.55 0;-139.8 0;-141.05 0;-141.05 0;-142.3 0;-143.55 0;-144.8 0;-146.05 0;-147.3 0;-148.55 0;-149.8 0;-151.05 0;-152.3 0;-153.55 0;-154.8 0;-156.05 0;-157.3 0;-158.55 0;-158.55 0;-162.4 0;-166.25 0;-170.1 0;-173.95 0;-177.8 0;-181.65 0;-185.5 0;-189.35 0;-193.2 0;-197.05 0;-200.9 0;-204.75 0;-205.1 0;-205.1 0;-205.1 0;-205.1 0;-205.1 0;-205.1 0;-205.1 0;-205.1 0;-205.1 0;-205.1 0;-205.1 0;-205.1 0;-205.1 0;-205.1 0;-205.1 0;-205.1 0;-205.1 0;-205.1 0;-205.1 0;-205.1 0;-205.1 0;-205.1 0;-205.1 0;-205.1 0;-205.1 0;-205.1 0;-205.1 0;-205.1 0;-205.1 0;-205.1 0;-205.1 0;-205.1 0;-205.1 0;-205.1 0;-205.1 0;-205.1 0;-205.1 0;-205.1 0;-205.1 0;-205.1 0;-205.1 0;-205.1 0;-205.1 0;-205.1 0;-205.1 0;-205.1 0;-205.1 0;-205.1 0;-205.1 0;-205.1 0;-205.1 0;-205.1 0;-205.1 0;-205.1 0;-205.1 0;-205.1 0;-205.1 0;-205.1 0;-205.1 0;-205.1 0;-205.1 0;-205.1 0;-205.1 0;-205.1 0;-205.1 0;-205.1 0;-205.1 0;-205.1 0;-205.1 0;-205.1 0;-205.1 0;-205.1 0;-205.1 0;-205.1 0;-205.1 0;-205.1 0;-205.1 0;-205.1 0;-205.1 0;-205.1 0;-205.1 0;-205.1 0;-205.1 0;-205.1 0;-205.1 0;-205.1 0;-205.1 0;-205.1 0;-205.1 0;-205.1 0;-205.1 0;-205.1 0;-205.1 0;-205.1 0;-205.1 0;-205.1 0;-205.1 0;-205.1 0;-205.1 0;-205.1 0;-205.1 0;-205.1 0;-205.1 0;-205.1 0;-205.1 0;-205.1 0;-205.1 0;-205.1 0;-205.1 0;-205.1 0;-205.1 0;-205.1 0;-205.1 0;-205.1 0" keyTimes="0;0.01235;0.0166;0.02085;0.02511;0.02936;0.04171;0.04367;0.04563;0.04759;0.04955;0.05151;0.05347;0.05543;0.0574;0.05936;0.06132;0.06328;0.06524;0.0672;0.06916;0.08151;0.08307;0.08464;0.0862;0.08776;0.08932;0.09088;0.09245;0.09401;0.09557;0.09713;0.09869;0.10026;0.10182;0.10338;0.11573;0.1222;0.12867;0.13513;0.1416;0.14807;0.15454;0.16101;0.16748;0.17394;0.18041;0.18688;0.19335;0.19982;0.20629;0.21863;0.22068;0.22273;0.22478;0.22683;0.22887;0.23092;0.23297;0.23502;0.23707;0.23911;0.24116;0.24321;0.24526;0.24731;0.25966;0.26391;0.26816;0.27241;0.27666;0.28901;0.29123;0.29346;0.29568;0.2979;0.30012;0.30234;0.30456;0.30679;0.30901;0.31123;0.31345;0.31567;0.31789;0.32011;0.33246;0.33385;0.33524;0.33663;0.33802;0.33941;0.34079;0.34218;0.34357;0.34496;0.34635;0.34774;0.34913;0.35051;0.3519;0.36425;0.37125;0.37826;0.38526;0.39226;0.39927;0.40627;0.41327;0.42027;0.42728;0.43428;0.44128;0.44829;0.45529;0.46229;0.47464;0.4762;0.47776;0.47933;0.48089;0.48245;0.48401;0.48557;0.48714;0.4887;0.49026;0.49182;0.49338;0.49495;0.49651;0.50886;0.51016;0.51146;0.51276;0.51406;0.51537;0.51667;0.51797;0.51927;0.52057;0.52187;0.52318;0.52448;0.52578;0.52708;0.53943;0.5451;0.55076;0.55643;0.5621;0.56776;0.57343;0.57909;0.58476;0.59043;0.59609;0.60176;0.60743;0.61309;0.61876;0.63111;0.63264;0.63416;0.63569;0.63722;0.63874;0.64027;0.6418;0.64333;0.64485;0.64638;0.64791;0.64944;0.65096;0.65249;0.66484;0.66671;0.66859;0.67046;0.67234;0.67421;0.67609;0.67796;0.67984;0.68171;0.68358;0.68546;0.68733;0.68921;0.69108;0.70343;0.70491;0.70638;0.70786;0.70933;0.71081;0.71228;0.71376;0.71523;0.71671;0.71818;0.71966;0.72113;0.72261;0.72408;0.73643;0.73826;0.74008;0.7419;0.74372;0.74554;0.74737;0.74919;0.75101;0.75283;0.75466;0.75648;0.7583;0.76012;0.76195;0.77429;0.77582;0.77735;0.77888;0.7804;0.78193;0.78346;0.78499;0.78651;0.78804;0.78957;0.7911;0.79262;0.79415;0.79568;0.80803;0.81228;0.81653;0.82078;0.82504;0.83738;0.83926;0.84113;0.84301;0.84488;0.84676;0.84863;0.85051;0.85238;0.85425;0.85613;0.858;0.85988;0.86175;0.86363;0.87597;0.87754;0.8791;0.88066;0.88222;0.88379;0.88535;0.88691;0.88847;0.89003;0.8916;0.89316;0.89472;0.89628;0.89784;0.91019;1"/>
    <circle cx="0" cy="48" r="1.6" fill="#00e5ff" opacity="0.32"/><circle cx="227" cy="145" r="1" fill="#00e5ff" opacity="0.16"/><circle cx="454" cy="134" r="1" fill="#00e5ff" opacity="0.16"/><circle cx="681" cy="123" r="1" fill="#00e5ff" opacity="0.32"/><circle cx="908" cy="112" r="1" fill="#00e5ff" opacity="0.16"/><circle cx="1135" cy="101" r="1.6" fill="#00e5ff" opacity="0.16"/><circle cx="1362" cy="90" r="1" fill="#00e5ff" opacity="0.32"/><circle cx="1589" cy="79" r="1" fill="#00e5ff" opacity="0.16"/><circle cx="1816" cy="68" r="1" fill="#00e5ff" opacity="0.16"/><circle cx="2043" cy="57" r="1" fill="#00e5ff" opacity="0.32"/><circle cx="2270" cy="154" r="1.6" fill="#00e5ff" opacity="0.16"/><circle cx="151" cy="143" r="1" fill="#00e5ff" opacity="0.16"/><circle cx="378" cy="132" r="1" fill="#00e5ff" opacity="0.32"/><circle cx="605" cy="121" r="1" fill="#00e5ff" opacity="0.16"/><circle cx="832" cy="110" r="1" fill="#00e5ff" opacity="0.16"/><circle cx="1059" cy="99" r="1.6" fill="#00e5ff" opacity="0.32"/><circle cx="1286" cy="88" r="1" fill="#00e5ff" opacity="0.16"/><circle cx="1513" cy="77" r="1" fill="#00e5ff" opacity="0.16"/><circle cx="1740" cy="66" r="1" fill="#00e5ff" opacity="0.32"/><circle cx="1967" cy="55" r="1" fill="#00e5ff" opacity="0.16"/><circle cx="2194" cy="152" r="1.6" fill="#00e5ff" opacity="0.16"/><circle cx="75" cy="141" r="1" fill="#00e5ff" opacity="0.32"/><circle cx="302" cy="130" r="1" fill="#00e5ff" opacity="0.16"/><circle cx="529" cy="119" r="1" fill="#00e5ff" opacity="0.16"/><circle cx="756" cy="108" r="1" fill="#00e5ff" opacity="0.32"/><circle cx="983" cy="97" r="1.6" fill="#00e5ff" opacity="0.16"/><circle cx="1210" cy="86" r="1" fill="#00e5ff" opacity="0.16"/><circle cx="1437" cy="75" r="1" fill="#00e5ff" opacity="0.32"/><circle cx="1664" cy="64" r="1" fill="#00e5ff" opacity="0.16"/><circle cx="1891" cy="53" r="1" fill="#00e5ff" opacity="0.16"/><circle cx="2118" cy="150" r="1.6" fill="#00e5ff" opacity="0.32"/><circle cx="2345" cy="139" r="1" fill="#00e5ff" opacity="0.16"/><circle cx="226" cy="128" r="1" fill="#00e5ff" opacity="0.16"/><circle cx="453" cy="117" r="1" fill="#00e5ff" opacity="0.32"/><circle cx="680" cy="106" r="1" fill="#00e5ff" opacity="0.16"/><circle cx="907" cy="95" r="1.6" fill="#00e5ff" opacity="0.16"/><circle cx="1134" cy="84" r="1" fill="#00e5ff" opacity="0.32"/><circle cx="1361" cy="73" r="1" fill="#00e5ff" opacity="0.16"/><circle cx="1588" cy="62" r="1" fill="#00e5ff" opacity="0.16"/><circle cx="1815" cy="51" r="1" fill="#00e5ff" opacity="0.32"/><circle cx="2042" cy="148" r="1.6" fill="#00e5ff" opacity="0.16"/><circle cx="2269" cy="137" r="1" fill="#00e5ff" opacity="0.16"/><circle cx="150" cy="126" r="1" fill="#00e5ff" opacity="0.32"/><circle cx="377" cy="115" r="1" fill="#00e5ff" opacity="0.16"/><circle cx="604" cy="104" r="1" fill="#00e5ff" opacity="0.16"/><circle cx="831" cy="93" r="1.6" fill="#00e5ff" opacity="0.32"/>
  </g>

  <g>
    <animateTransform attributeName="transform" type="translate" dur="17.82s" repeatCount="indefinite"
      calcMode="linear" values="0 0;0 0;0 0;0 0;0 0;0 0;0 0;0 0;0 0;0 0;0 0;0 0;0 0;0 0;0 0;0 0;0 0;0 0;0 0;0 0;0 0;0 0;0 0;0 0;0 0;0 0;0 0;0 0;0 0;0 0;0 0;0 0;0 0;0 0;0 0;0 0;0 0;0 0;0 0;0 0;0 0;0 0;0 0;0 0;0 0;0 0;0 0;0 0;0 0;0 0;0 0;0 0;-2.57 0;-6.14 0;-9.71 0;-13.29 0;-16.86 0;-20.43 0;-24 0;-27.57 0;-31.14 0;-34.71 0;-38.29 0;-41.86 0;-45.43 0;-49 0;-49 0;-61.5 0;-74 0;-86.5 0;-99 0;-99 0;-102.57 0;-106.14 0;-109.71 0;-113.29 0;-116.86 0;-120.43 0;-124 0;-127.57 0;-131.14 0;-134.71 0;-138.29 0;-141.86 0;-145.43 0;-149 0;-149 0;-152.57 0;-156.14 0;-159.71 0;-163.29 0;-166.86 0;-170.43 0;-174 0;-177.57 0;-181.14 0;-184.71 0;-188.29 0;-191.86 0;-195.43 0;-199 0;-199 0;-210 0;-221 0;-232 0;-243 0;-254 0;-265 0;-276 0;-287 0;-298 0;-309 0;-320 0;-331 0;-342 0;-353 0;-353 0;-356.57 0;-360.14 0;-363.71 0;-367.29 0;-370.86 0;-374.43 0;-378 0;-381.57 0;-385.14 0;-388.71 0;-392.29 0;-395.86 0;-399.43 0;-403 0;-403 0;-406.57 0;-410.14 0;-413.71 0;-417.29 0;-420.86 0;-424.43 0;-428 0;-431.57 0;-435.14 0;-438.71 0;-442.29 0;-445.86 0;-449.43 0;-453 0;-453 0;-464 0;-475 0;-486 0;-497 0;-508 0;-519 0;-530 0;-541 0;-552 0;-563 0;-574 0;-585 0;-586 0;-586 0;-586 0;-586 0;-586 0;-586 0;-586 0;-586 0;-586 0;-586 0;-586 0;-586 0;-586 0;-586 0;-586 0;-586 0;-586 0;-586 0;-586 0;-586 0;-586 0;-586 0;-586 0;-586 0;-586 0;-586 0;-586 0;-586 0;-586 0;-586 0;-586 0;-586 0;-586 0;-586 0;-586 0;-586 0;-586 0;-586 0;-586 0;-586 0;-586 0;-586 0;-586 0;-586 0;-586 0;-586 0;-586 0;-586 0;-586 0;-586 0;-586 0;-586 0;-586 0;-586 0;-586 0;-586 0;-586 0;-586 0;-586 0;-586 0;-586 0;-586 0;-586 0;-586 0;-586 0;-586 0;-586 0;-586 0;-586 0;-586 0;-586 0;-586 0;-586 0;-586 0;-586 0;-586 0;-586 0;-586 0;-586 0;-586 0;-586 0;-586 0;-586 0;-586 0;-586 0;-586 0;-586 0;-586 0;-586 0;-586 0;-586 0;-586 0;-586 0;-586 0;-586 0;-586 0;-586 0;-586 0;-586 0;-586 0;-586 0;-586 0;-586 0;-586 0;-586 0;-586 0;-586 0;-586 0;-586 0;-586 0;-586 0;-586 0;-586 0;-586 0" keyTimes="0;0.01235;0.0166;0.02085;0.02511;0.02936;0.04171;0.04367;0.04563;0.04759;0.04955;0.05151;0.05347;0.05543;0.0574;0.05936;0.06132;0.06328;0.06524;0.0672;0.06916;0.08151;0.08307;0.08464;0.0862;0.08776;0.08932;0.09088;0.09245;0.09401;0.09557;0.09713;0.09869;0.10026;0.10182;0.10338;0.11573;0.1222;0.12867;0.13513;0.1416;0.14807;0.15454;0.16101;0.16748;0.17394;0.18041;0.18688;0.19335;0.19982;0.20629;0.21863;0.22068;0.22273;0.22478;0.22683;0.22887;0.23092;0.23297;0.23502;0.23707;0.23911;0.24116;0.24321;0.24526;0.24731;0.25966;0.26391;0.26816;0.27241;0.27666;0.28901;0.29123;0.29346;0.29568;0.2979;0.30012;0.30234;0.30456;0.30679;0.30901;0.31123;0.31345;0.31567;0.31789;0.32011;0.33246;0.33385;0.33524;0.33663;0.33802;0.33941;0.34079;0.34218;0.34357;0.34496;0.34635;0.34774;0.34913;0.35051;0.3519;0.36425;0.37125;0.37826;0.38526;0.39226;0.39927;0.40627;0.41327;0.42027;0.42728;0.43428;0.44128;0.44829;0.45529;0.46229;0.47464;0.4762;0.47776;0.47933;0.48089;0.48245;0.48401;0.48557;0.48714;0.4887;0.49026;0.49182;0.49338;0.49495;0.49651;0.50886;0.51016;0.51146;0.51276;0.51406;0.51537;0.51667;0.51797;0.51927;0.52057;0.52187;0.52318;0.52448;0.52578;0.52708;0.53943;0.5451;0.55076;0.55643;0.5621;0.56776;0.57343;0.57909;0.58476;0.59043;0.59609;0.60176;0.60743;0.61309;0.61876;0.63111;0.63264;0.63416;0.63569;0.63722;0.63874;0.64027;0.6418;0.64333;0.64485;0.64638;0.64791;0.64944;0.65096;0.65249;0.66484;0.66671;0.66859;0.67046;0.67234;0.67421;0.67609;0.67796;0.67984;0.68171;0.68358;0.68546;0.68733;0.68921;0.69108;0.70343;0.70491;0.70638;0.70786;0.70933;0.71081;0.71228;0.71376;0.71523;0.71671;0.71818;0.71966;0.72113;0.72261;0.72408;0.73643;0.73826;0.74008;0.7419;0.74372;0.74554;0.74737;0.74919;0.75101;0.75283;0.75466;0.75648;0.7583;0.76012;0.76195;0.77429;0.77582;0.77735;0.77888;0.7804;0.78193;0.78346;0.78499;0.78651;0.78804;0.78957;0.7911;0.79262;0.79415;0.79568;0.80803;0.81228;0.81653;0.82078;0.82504;0.83738;0.83926;0.84113;0.84301;0.84488;0.84676;0.84863;0.85051;0.85238;0.85425;0.85613;0.858;0.85988;0.86175;0.86363;0.87597;0.87754;0.8791;0.88066;0.88222;0.88379;0.88535;0.88691;0.88847;0.89003;0.8916;0.89316;0.89472;0.89628;0.89784;0.91019;1"/>

    <rect x="0" y="210" width="50" height="50" fill="#16323d"/><rect x="0" y="210" width="50" height="2.5" fill="#1d4757"/><text x="25" y="252" text-anchor="middle" class="mon">08-14</text><rect x="50" y="210" width="50" height="50" fill="#16323d"/><rect x="50" y="210" width="50" height="2.5" fill="#1d4757"/><text x="75" y="252" text-anchor="middle" class="mon">08-15</text><rect x="100" y="124" width="50" height="136" fill="#0d6b7d" fill-opacity="0.9"/><rect x="100" y="124" width="50" height="3.5" fill="#00e5ff"/><text x="125" y="144" text-anchor="middle" class="cnt">7</text><text x="125" y="252" text-anchor="middle" class="mon">08-16</text><rect x="150" y="164" width="50" height="96" fill="#0f5563" fill-opacity="0.9"/><rect x="150" y="164" width="50" height="3.5" fill="#00e5ff"/><text x="175" y="184" text-anchor="middle" class="cnt">3</text><text x="175" y="252" text-anchor="middle" class="mon">08-17</text><rect x="200" y="210" width="104" height="50" fill="#070a0f"/><line x1="200" y1="210" x2="200" y2="260" stroke="#ff2e88" stroke-width="2" opacity="0.5"/><line x1="304" y1="210" x2="304" y2="260" stroke="#ff2e88" stroke-width="2" opacity="0.5"/><text x="252" y="234" text-anchor="middle" class="gap">7 QUIET DAYS</text><rect x="304" y="114" width="50" height="146" fill="#9c1f5a" fill-opacity="0.9"/><rect x="304" y="114" width="50" height="3.5" fill="#ff2e88"/><text x="329" y="134" text-anchor="middle" class="cnt">8</text><text x="329" y="252" text-anchor="middle" class="mon">08-25</text><rect x="354" y="210" width="50" height="50" fill="#16323d"/><rect x="354" y="210" width="50" height="2.5" fill="#1d4757"/><text x="379" y="252" text-anchor="middle" class="mon">08-26</text><rect x="404" y="210" width="50" height="50" fill="#16323d"/><rect x="404" y="210" width="50" height="2.5" fill="#1d4757"/><text x="429" y="252" text-anchor="middle" class="mon">08-27</text><rect x="454" y="94" width="50" height="166" fill="#9c1f5a" fill-opacity="0.9"/><rect x="454" y="94" width="50" height="3.5" fill="#ff2e88"/><text x="479" y="114" text-anchor="middle" class="cnt">10</text><text x="479" y="252" text-anchor="middle" class="mon">08-28</text><rect x="504" y="114" width="50" height="146" fill="#9c1f5a" fill-opacity="0.9"/><rect x="504" y="114" width="50" height="3.5" fill="#ff2e88"/><text x="529" y="134" text-anchor="middle" class="cnt">8</text><text x="529" y="252" text-anchor="middle" class="mon">08-29</text><rect x="554" y="210" width="104" height="50" fill="#070a0f"/><line x1="554" y1="210" x2="554" y2="260" stroke="#ff2e88" stroke-width="2" opacity="0.5"/><line x1="658" y1="210" x2="658" y2="260" stroke="#ff2e88" stroke-width="2" opacity="0.5"/><text x="606" y="234" text-anchor="middle" class="gap">5 QUIET DAYS</text><rect x="658" y="184" width="50" height="76" fill="#0f5563" fill-opacity="0.9"/><rect x="658" y="184" width="50" height="3.5" fill="#00e5ff"/><text x="683" y="204" text-anchor="middle" class="cnt">1</text><text x="683" y="252" text-anchor="middle" class="mon">09-04</text><rect x="708" y="144" width="50" height="116" fill="#0d6b7d" fill-opacity="0.9"/><rect x="708" y="144" width="50" height="3.5" fill="#00e5ff"/><text x="733" y="164" text-anchor="middle" class="cnt">5</text><text x="733" y="252" text-anchor="middle" class="mon">09-05</text><rect x="758" y="154" width="50" height="106" fill="#0d6b7d" fill-opacity="0.9"/><rect x="758" y="154" width="50" height="3.5" fill="#00e5ff"/><text x="783" y="174" text-anchor="middle" class="cnt">4</text><text x="783" y="252" text-anchor="middle" class="mon">09-06</text><rect x="808" y="210" width="104" height="50" fill="#070a0f"/><line x1="808" y1="210" x2="808" y2="260" stroke="#ff2e88" stroke-width="2" opacity="0.5"/><line x1="912" y1="210" x2="912" y2="260" stroke="#ff2e88" stroke-width="2" opacity="0.5"/><text x="860" y="234" text-anchor="middle" class="gap">7 QUIET DAYS</text><rect x="912" y="174" width="50" height="86" fill="#0f5563" fill-opacity="0.9"/><rect x="912" y="174" width="50" height="3.5" fill="#00e5ff"/><text x="937" y="194" text-anchor="middle" class="cnt">2</text><text x="937" y="252" text-anchor="middle" class="mon">09-14</text><rect x="962" y="210" width="50" height="50" fill="#16323d"/><rect x="962" y="210" width="50" height="2.5" fill="#1d4757"/><text x="987" y="252" text-anchor="middle" class="mon">09-15</text><rect x="1012" y="134" width="50" height="126" fill="#0d6b7d" fill-opacity="0.9"/><rect x="1012" y="134" width="50" height="3.5" fill="#00e5ff"/><text x="1037" y="154" text-anchor="middle" class="cnt">6</text><text x="1037" y="252" text-anchor="middle" class="mon">09-16</text><rect x="1062" y="104" width="50" height="156" fill="#9c1f5a" fill-opacity="0.9"/><rect x="1062" y="104" width="50" height="3.5" fill="#ff2e88"/><text x="1087" y="124" text-anchor="middle" class="cnt">9</text><text x="1087" y="252" text-anchor="middle" class="mon">09-17</text><rect x="1112" y="174" width="50" height="86" fill="#0f5563" fill-opacity="0.9"/><rect x="1112" y="174" width="50" height="3.5" fill="#00e5ff"/><text x="1137" y="194" text-anchor="middle" class="cnt">2</text><text x="1137" y="252" text-anchor="middle" class="mon">09-18</text><rect x="1162" y="210" width="50" height="50" fill="#16323d"/><rect x="1162" y="210" width="50" height="2.5" fill="#1d4757"/><text x="1187" y="252" text-anchor="middle" class="mon">09-19</text><rect x="1212" y="210" width="50" height="50" fill="#16323d"/><rect x="1212" y="210" width="50" height="2.5" fill="#1d4757"/><text x="1237" y="252" text-anchor="middle" class="mon">09-20</text><rect x="1262" y="134" width="50" height="126" fill="#0d6b7d" fill-opacity="0.9"/><rect x="1262" y="134" width="50" height="3.5" fill="#00e5ff"/><text x="1287" y="154" text-anchor="middle" class="cnt">6</text><text x="1287" y="252" text-anchor="middle" class="mon">09-21</text><rect x="1312" y="174" width="50" height="86" fill="#0f5563" fill-opacity="0.9"/><rect x="1312" y="174" width="50" height="3.5" fill="#00e5ff"/><text x="1337" y="194" text-anchor="middle" class="cnt">2</text><text x="1337" y="252" text-anchor="middle" class="mon">09-22</text><rect x="1362" y="210" width="104" height="50" fill="#070a0f"/><line x1="1362" y1="210" x2="1362" y2="260" stroke="#ff2e88" stroke-width="2" opacity="0.5"/><line x1="1466" y1="210" x2="1466" y2="260" stroke="#ff2e88" stroke-width="2" opacity="0.5"/><text x="1414" y="234" text-anchor="middle" class="gap">16 QUIET DAYS</text>
    <g><path d="M125 100L130 106L125 112L120 106Z" fill="#ffd400" filter="url(#g1)"><animate attributeName="opacity" calcMode="discrete" dur="17.82s" repeatCount="indefinite" values="1;0" keyTimes="0;0.06916"/><animateTransform attributeName="transform" type="translate" dur="1.5s" repeatCount="indefinite" values="0 0;0 -4;0 0" keyTimes="0;0.5;1"/></path><circle cx="125" cy="106" r="3" fill="none" stroke="#ffd400" stroke-width="2" opacity="0"><animate attributeName="r" dur="17.82s" repeatCount="indefinite" calcMode="linear" values="3;3;20" keyTimes="0;0.06916;0.08151"/><animate attributeName="opacity" dur="17.82s" repeatCount="indefinite" calcMode="linear" values="0;0.9;0" keyTimes="0;0.06916;0.08151"/></circle></g><g><path d="M175 140L180 146L175 152L170 146Z" fill="#ffd400" filter="url(#g1)"><animate attributeName="opacity" calcMode="discrete" dur="17.82s" repeatCount="indefinite" values="1;0" keyTimes="0;0.10338"/><animateTransform attributeName="transform" type="translate" dur="1.5s" repeatCount="indefinite" values="0 0;0 -4;0 0" keyTimes="0;0.5;1"/></path><circle cx="175" cy="146" r="3" fill="none" stroke="#ffd400" stroke-width="2" opacity="0"><animate attributeName="r" dur="17.82s" repeatCount="indefinite" calcMode="linear" values="3;3;20" keyTimes="0;0.10338;0.11573"/><animate attributeName="opacity" dur="17.82s" repeatCount="indefinite" calcMode="linear" values="0;0.9;0" keyTimes="0;0.10338;0.11573"/></circle></g><g><path d="M329 90L334 96L329 102L324 96Z" fill="#ffd400" filter="url(#g1)"><animate attributeName="opacity" calcMode="discrete" dur="17.82s" repeatCount="indefinite" values="1;0" keyTimes="0;0.20629"/><animateTransform attributeName="transform" type="translate" dur="1.5s" repeatCount="indefinite" values="0 0;0 -4;0 0" keyTimes="0;0.5;1"/></path><circle cx="329" cy="96" r="3" fill="none" stroke="#ffd400" stroke-width="2" opacity="0"><animate attributeName="r" dur="17.82s" repeatCount="indefinite" calcMode="linear" values="3;3;20" keyTimes="0;0.20629;0.21863"/><animate attributeName="opacity" dur="17.82s" repeatCount="indefinite" calcMode="linear" values="0;0.9;0" keyTimes="0;0.20629;0.21863"/></circle></g><g><path d="M479 70L484 76L479 82L474 76Z" fill="#ffd400" filter="url(#g1)"><animate attributeName="opacity" calcMode="discrete" dur="17.82s" repeatCount="indefinite" values="1;0" keyTimes="0;0.32011"/><animateTransform attributeName="transform" type="translate" dur="1.5s" repeatCount="indefinite" values="0 0;0 -4;0 0" keyTimes="0;0.5;1"/></path><circle cx="479" cy="76" r="3" fill="none" stroke="#ffd400" stroke-width="2" opacity="0"><animate attributeName="r" dur="17.82s" repeatCount="indefinite" calcMode="linear" values="3;3;20" keyTimes="0;0.32011;0.33246"/><animate attributeName="opacity" dur="17.82s" repeatCount="indefinite" calcMode="linear" values="0;0.9;0" keyTimes="0;0.32011;0.33246"/></circle></g><g><path d="M529 90L534 96L529 102L524 96Z" fill="#ffd400" filter="url(#g1)"><animate attributeName="opacity" calcMode="discrete" dur="17.82s" repeatCount="indefinite" values="1;0" keyTimes="0;0.3519"/><animateTransform attributeName="transform" type="translate" dur="1.5s" repeatCount="indefinite" values="0 0;0 -4;0 0" keyTimes="0;0.5;1"/></path><circle cx="529" cy="96" r="3" fill="none" stroke="#ffd400" stroke-width="2" opacity="0"><animate attributeName="r" dur="17.82s" repeatCount="indefinite" calcMode="linear" values="3;3;20" keyTimes="0;0.3519;0.36425"/><animate attributeName="opacity" dur="17.82s" repeatCount="indefinite" calcMode="linear" values="0;0.9;0" keyTimes="0;0.3519;0.36425"/></circle></g><g><path d="M683 160L688 166L683 172L678 166Z" fill="#ffd400" filter="url(#g1)"><animate attributeName="opacity" calcMode="discrete" dur="17.82s" repeatCount="indefinite" values="1;0" keyTimes="0;0.46229"/><animateTransform attributeName="transform" type="translate" dur="1.5s" repeatCount="indefinite" values="0 0;0 -4;0 0" keyTimes="0;0.5;1"/></path><circle cx="683" cy="166" r="3" fill="none" stroke="#ffd400" stroke-width="2" opacity="0"><animate attributeName="r" dur="17.82s" repeatCount="indefinite" calcMode="linear" values="3;3;20" keyTimes="0;0.46229;0.47464"/><animate attributeName="opacity" dur="17.82s" repeatCount="indefinite" calcMode="linear" values="0;0.9;0" keyTimes="0;0.46229;0.47464"/></circle></g><g><path d="M733 120L738 126L733 132L728 126Z" fill="#ffd400" filter="url(#g1)"><animate attributeName="opacity" calcMode="discrete" dur="17.82s" repeatCount="indefinite" values="1;0" keyTimes="0;0.49651"/><animateTransform attributeName="transform" type="translate" dur="1.5s" repeatCount="indefinite" values="0 0;0 -4;0 0" keyTimes="0;0.5;1"/></path><circle cx="733" cy="126" r="3" fill="none" stroke="#ffd400" stroke-width="2" opacity="0"><animate attributeName="r" dur="17.82s" repeatCount="indefinite" calcMode="linear" values="3;3;20" keyTimes="0;0.49651;0.50886"/><animate attributeName="opacity" dur="17.82s" repeatCount="indefinite" calcMode="linear" values="0;0.9;0" keyTimes="0;0.49651;0.50886"/></circle></g><g><path d="M783 130L788 136L783 142L778 136Z" fill="#ffd400" filter="url(#g1)"><animate attributeName="opacity" calcMode="discrete" dur="17.82s" repeatCount="indefinite" values="1;0" keyTimes="0;0.52708"/><animateTransform attributeName="transform" type="translate" dur="1.5s" repeatCount="indefinite" values="0 0;0 -4;0 0" keyTimes="0;0.5;1"/></path><circle cx="783" cy="136" r="3" fill="none" stroke="#ffd400" stroke-width="2" opacity="0"><animate attributeName="r" dur="17.82s" repeatCount="indefinite" calcMode="linear" values="3;3;20" keyTimes="0;0.52708;0.53943"/><animate attributeName="opacity" dur="17.82s" repeatCount="indefinite" calcMode="linear" values="0;0.9;0" keyTimes="0;0.52708;0.53943"/></circle></g><g><path d="M937 150L942 156L937 162L932 156Z" fill="#ffd400" filter="url(#g1)"><animate attributeName="opacity" calcMode="discrete" dur="17.82s" repeatCount="indefinite" values="1;0" keyTimes="0;0.61876"/><animateTransform attributeName="transform" type="translate" dur="1.5s" repeatCount="indefinite" values="0 0;0 -4;0 0" keyTimes="0;0.5;1"/></path><circle cx="937" cy="156" r="3" fill="none" stroke="#ffd400" stroke-width="2" opacity="0"><animate attributeName="r" dur="17.82s" repeatCount="indefinite" calcMode="linear" values="3;3;20" keyTimes="0;0.61876;0.63111"/><animate attributeName="opacity" dur="17.82s" repeatCount="indefinite" calcMode="linear" values="0;0.9;0" keyTimes="0;0.61876;0.63111"/></circle></g><g><path d="M1037 110L1042 116L1037 122L1032 116Z" fill="#ffd400" filter="url(#g1)"><animate attributeName="opacity" calcMode="discrete" dur="17.82s" repeatCount="indefinite" values="1;0" keyTimes="0;0.69108"/><animateTransform attributeName="transform" type="translate" dur="1.5s" repeatCount="indefinite" values="0 0;0 -4;0 0" keyTimes="0;0.5;1"/></path><circle cx="1037" cy="116" r="3" fill="none" stroke="#ffd400" stroke-width="2" opacity="0"><animate attributeName="r" dur="17.82s" repeatCount="indefinite" calcMode="linear" values="3;3;20" keyTimes="0;0.69108;0.70343"/><animate attributeName="opacity" dur="17.82s" repeatCount="indefinite" calcMode="linear" values="0;0.9;0" keyTimes="0;0.69108;0.70343"/></circle></g><g><path d="M1087 80L1092 86L1087 92L1082 86Z" fill="#ffd400" filter="url(#g1)"><animate attributeName="opacity" calcMode="discrete" dur="17.82s" repeatCount="indefinite" values="1;0" keyTimes="0;0.72408"/><animateTransform attributeName="transform" type="translate" dur="1.5s" repeatCount="indefinite" values="0 0;0 -4;0 0" keyTimes="0;0.5;1"/></path><circle cx="1087" cy="86" r="3" fill="none" stroke="#ffd400" stroke-width="2" opacity="0"><animate attributeName="r" dur="17.82s" repeatCount="indefinite" calcMode="linear" values="3;3;20" keyTimes="0;0.72408;0.73643"/><animate attributeName="opacity" dur="17.82s" repeatCount="indefinite" calcMode="linear" values="0;0.9;0" keyTimes="0;0.72408;0.73643"/></circle></g><g><path d="M1137 150L1142 156L1137 162L1132 156Z" fill="#ffd400" filter="url(#g1)"><animate attributeName="opacity" calcMode="discrete" dur="17.82s" repeatCount="indefinite" values="1;0" keyTimes="0;0.76195"/><animateTransform attributeName="transform" type="translate" dur="1.5s" repeatCount="indefinite" values="0 0;0 -4;0 0" keyTimes="0;0.5;1"/></path><circle cx="1137" cy="156" r="3" fill="none" stroke="#ffd400" stroke-width="2" opacity="0"><animate attributeName="r" dur="17.82s" repeatCount="indefinite" calcMode="linear" values="3;3;20" keyTimes="0;0.76195;0.77429"/><animate attributeName="opacity" dur="17.82s" repeatCount="indefinite" calcMode="linear" values="0;0.9;0" keyTimes="0;0.76195;0.77429"/></circle></g><g><path d="M1287 110L1292 116L1287 122L1282 116Z" fill="#ffd400" filter="url(#g1)"><animate attributeName="opacity" calcMode="discrete" dur="17.82s" repeatCount="indefinite" values="1;0" keyTimes="0;0.86363"/><animateTransform attributeName="transform" type="translate" dur="1.5s" repeatCount="indefinite" values="0 0;0 -4;0 0" keyTimes="0;0.5;1"/></path><circle cx="1287" cy="116" r="3" fill="none" stroke="#ffd400" stroke-width="2" opacity="0"><animate attributeName="r" dur="17.82s" repeatCount="indefinite" calcMode="linear" values="3;3;20" keyTimes="0;0.86363;0.87597"/><animate attributeName="opacity" dur="17.82s" repeatCount="indefinite" calcMode="linear" values="0;0.9;0" keyTimes="0;0.86363;0.87597"/></circle></g><g><path d="M1337 150L1342 156L1337 162L1332 156Z" fill="#ffd400" filter="url(#g1)"><animate attributeName="opacity" calcMode="discrete" dur="17.82s" repeatCount="indefinite" values="1;0" keyTimes="0;0.89784"/><animateTransform attributeName="transform" type="translate" dur="1.5s" repeatCount="indefinite" values="0 0;0 -4;0 0" keyTimes="0;0.5;1"/></path><circle cx="1337" cy="156" r="3" fill="none" stroke="#ffd400" stroke-width="2" opacity="0"><animate attributeName="r" dur="17.82s" repeatCount="indefinite" calcMode="linear" values="3;3;20" keyTimes="0;0.89784;0.91019"/><animate attributeName="opacity" dur="17.82s" repeatCount="indefinite" calcMode="linear" values="0;0.9;0" keyTimes="0;0.89784;0.91019"/></circle></g>

    <g filter="url(#g2)">
      <g>
        <animateTransform attributeName="transform" type="translate" dur="17.82s" repeatCount="indefinite"
          calcMode="linear" values="11.35 178.5;11.35 178.5;23.85 167.25;36.35 163.5;48.85 167.25;61.35 178.5;61.35 178.5;64.92 156.04;68.49 136.09;72.06 118.65;75.64 103.72;79.21 91.31;82.78 81.4;86.35 74;89.92 69.11;93.49 66.73;97.06 66.87;100.64 69.51;104.21 74.66;107.78 82.33;111.35 92.5;111.35 92.5;114.92 83.75;118.49 76.79;122.06 71.62;125.64 68.23;129.21 66.62;132.78 66.8;136.35 68.77;139.92 72.52;143.49 78.05;147.06 85.37;150.64 94.48;154.21 105.37;157.78 118.04;161.35 132.5;161.35 132.5;172.35 114.43;183.35 98.58;194.35 84.97;205.35 73.59;216.35 64.44;227.35 57.52;238.35 52.84;249.35 50.38;260.35 50.16;271.35 52.16;282.35 56.4;293.35 62.87;304.35 71.57;315.35 82.5;315.35 82.5;318.92 72.07;322.49 64.3;326.06 59.19;329.64 56.73;333.21 56.94;336.78 59.81;340.35 65.34;343.92 73.52;347.49 84.37;351.06 97.88;354.64 114.04;358.21 132.87;361.78 154.35;365.35 178.5;365.35 178.5;377.85 167.25;390.35 163.5;402.85 167.25;415.35 178.5;415.35 178.5;418.92 155.54;422.49 134.84;426.06 116.39;429.64 100.2;433.21 86.27;436.78 74.6;440.35 65.19;443.92 58.03;447.49 53.13;451.06 50.49;454.64 50.11;458.21 51.98;461.78 56.11;465.35 62.5;465.35 62.5;468.92 58.27;472.49 54.91;476.06 52.42;479.64 50.8;483.21 50.05;486.78 50.17;490.35 51.17;493.92 53.03;497.49 55.77;501.06 59.37;504.64 63.85;508.21 69.19;511.78 75.41;515.35 82.5;515.35 82.5;526.35 70.89;537.35 61.83;548.35 55.33;559.35 51.38;570.35 49.99;581.35 51.16;592.35 54.88;603.35 61.16;614.35 69.99;625.35 81.38;636.35 95.33;647.35 111.83;658.35 130.89;669.35 152.5;669.35 152.5;672.92 138.04;676.49 125.37;680.06 114.48;683.64 105.37;687.21 98.05;690.78 92.52;694.35 88.77;697.92 86.8;701.49 86.62;705.06 88.23;708.64 91.62;712.21 96.79;715.78 103.75;719.35 112.5;719.35 112.5;722.92 105.04;726.49 98.84;730.06 93.9;733.64 90.22;737.21 87.79;740.78 86.62;744.35 86.7;747.92 88.05;751.49 90.65;755.06 94.5;758.64 99.62;762.21 105.99;765.78 113.62;769.35 122.5;769.35 122.5;780.35 107.05;791.35 94.2;802.35 83.95;813.35 76.29;824.35 71.23;835.35 68.76;846.35 68.89;857.35 71.62;868.35 76.94;879.35 84.86;890.35 95.38;901.35 108.49;912.35 124.2;923.35 142.5;923.35 142.5;926.92 133.91;930.49 127.03;934.06 121.88;937.64 118.44;941.21 116.72;944.78 116.71;948.35 118.42;951.92 121.85;955.49 127;959.06 133.87;962.64 142.45;966.21 152.75;969.78 164.77;973.35 178.5;973.35 178.5;976.92 157.75;980.49 139.36;984.06 123.32;987.64 109.64;991.21 98.32;994.78 89.36;998.35 82.75;1001.92 78.5;1005.49 76.61;1009.06 77.07;1012.64 79.89;1016.21 85.07;1019.78 92.61;1023.35 102.5;1023.35 102.5;1026.92 90.82;1030.49 80.61;1034.06 71.87;1037.64 64.59;1041.21 58.78;1044.78 54.44;1048.35 51.57;1051.92 50.16;1055.49 50.21;1059.06 51.74;1062.64 54.73;1066.21 59.19;1069.78 65.11;1073.35 72.5;1073.35 72.5;1076.92 63.82;1080.49 57.24;1084.06 52.77;1087.64 50.41;1091.21 50.15;1094.78 51.99;1098.35 55.94;1101.92 61.99;1105.49 70.15;1109.06 80.41;1112.64 92.77;1116.21 107.24;1119.78 123.82;1123.35 142.5;1123.35 142.5;1126.92 133.91;1130.49 127.03;1134.06 121.88;1137.64 118.44;1141.21 116.72;1144.78 116.71;1148.35 118.42;1151.92 121.85;1155.49 127;1159.06 133.87;1162.64 142.45;1166.21 152.75;1169.78 164.77;1173.35 178.5;1173.35 178.5;1185.85 167.25;1198.35 163.5;1210.85 167.25;1223.35 178.5;1223.35 178.5;1226.92 157.75;1230.49 139.36;1234.06 123.32;1237.64 109.64;1241.21 98.32;1244.78 89.36;1248.35 82.75;1251.92 78.5;1255.49 76.61;1259.06 77.07;1262.64 79.89;1266.21 85.07;1269.78 92.61;1273.35 102.5;1273.35 102.5;1276.92 93.75;1280.49 86.79;1284.06 81.62;1287.64 78.23;1291.21 76.62;1294.78 76.8;1298.35 78.77;1301.92 82.52;1305.49 88.05;1309.06 95.37;1312.64 104.48;1316.21 115.37;1319.78 128.04;1323.35 142.5;1323.35 142.5;1323.35 142.5" keyTimes="0;0.01235;0.0166;0.02085;0.02511;0.02936;0.04171;0.04367;0.04563;0.04759;0.04955;0.05151;0.05347;0.05543;0.0574;0.05936;0.06132;0.06328;0.06524;0.0672;0.06916;0.08151;0.08307;0.08464;0.0862;0.08776;0.08932;0.09088;0.09245;0.09401;0.09557;0.09713;0.09869;0.10026;0.10182;0.10338;0.11573;0.1222;0.12867;0.13513;0.1416;0.14807;0.15454;0.16101;0.16748;0.17394;0.18041;0.18688;0.19335;0.19982;0.20629;0.21863;0.22068;0.22273;0.22478;0.22683;0.22887;0.23092;0.23297;0.23502;0.23707;0.23911;0.24116;0.24321;0.24526;0.24731;0.25966;0.26391;0.26816;0.27241;0.27666;0.28901;0.29123;0.29346;0.29568;0.2979;0.30012;0.30234;0.30456;0.30679;0.30901;0.31123;0.31345;0.31567;0.31789;0.32011;0.33246;0.33385;0.33524;0.33663;0.33802;0.33941;0.34079;0.34218;0.34357;0.34496;0.34635;0.34774;0.34913;0.35051;0.3519;0.36425;0.37125;0.37826;0.38526;0.39226;0.39927;0.40627;0.41327;0.42027;0.42728;0.43428;0.44128;0.44829;0.45529;0.46229;0.47464;0.4762;0.47776;0.47933;0.48089;0.48245;0.48401;0.48557;0.48714;0.4887;0.49026;0.49182;0.49338;0.49495;0.49651;0.50886;0.51016;0.51146;0.51276;0.51406;0.51537;0.51667;0.51797;0.51927;0.52057;0.52187;0.52318;0.52448;0.52578;0.52708;0.53943;0.5451;0.55076;0.55643;0.5621;0.56776;0.57343;0.57909;0.58476;0.59043;0.59609;0.60176;0.60743;0.61309;0.61876;0.63111;0.63264;0.63416;0.63569;0.63722;0.63874;0.64027;0.6418;0.64333;0.64485;0.64638;0.64791;0.64944;0.65096;0.65249;0.66484;0.66671;0.66859;0.67046;0.67234;0.67421;0.67609;0.67796;0.67984;0.68171;0.68358;0.68546;0.68733;0.68921;0.69108;0.70343;0.70491;0.70638;0.70786;0.70933;0.71081;0.71228;0.71376;0.71523;0.71671;0.71818;0.71966;0.72113;0.72261;0.72408;0.73643;0.73826;0.74008;0.7419;0.74372;0.74554;0.74737;0.74919;0.75101;0.75283;0.75466;0.75648;0.7583;0.76012;0.76195;0.77429;0.77582;0.77735;0.77888;0.7804;0.78193;0.78346;0.78499;0.78651;0.78804;0.78957;0.7911;0.79262;0.79415;0.79568;0.80803;0.81228;0.81653;0.82078;0.82504;0.83738;0.83926;0.84113;0.84301;0.84488;0.84676;0.84863;0.85051;0.85238;0.85425;0.85613;0.858;0.85988;0.86175;0.86363;0.87597;0.87754;0.8791;0.88066;0.88222;0.88379;0.88535;0.88691;0.88847;0.89003;0.8916;0.89316;0.89472;0.89628;0.89784;0.91019;1"/>
        <g transform="scale(2.1)">
          <g><g opacity="0"><path d="M4 0h4v1h-4zM3 1h1v1h-1zM8 1h1v1h-1zM3 2h1v1h-1zM8 2h1v1h-1zM3 3h1v1h-1zM8 3h1v1h-1zM4 4h4v1h-4zM3 5h6v1h-6zM2 6h2v1h-2zM5 6h2v1h-2zM8 6h2v1h-2zM1 7h2v1h-2zM5 7h2v1h-2zM9 7h2v1h-2zM0 8h2v1h-2zM5 8h2v1h-2zM10 8h2v1h-2zM5 9h2v1h-2zM4 10h4v1h-4zM3 11h2v1h-2zM7 11h2v1h-2zM2 12h2v1h-2zM8 12h2v1h-2zM1 13h2v1h-2zM9 13h2v1h-2z" fill="#00e5ff"/><path d="M4 1h4v1h-4zM4 2h1v1h-1zM7 2h1v1h-1zM4 3h4v1h-4z" fill="#08323d"/><path d="M5 2h2v1h-2z" fill="#ffffff"/><animate attributeName="opacity" calcMode="discrete" dur="0.34s" repeatCount="indefinite" values="1;0;0;0" keyTimes="0;0.25;0.5;0.75"/></g><g opacity="0"><path d="M4 0h4v1h-4zM3 1h1v1h-1zM8 1h1v1h-1zM3 2h1v1h-1zM8 2h1v1h-1zM3 3h1v1h-1zM8 3h1v1h-1zM4 4h4v1h-4zM3 5h6v1h-6zM2 6h2v1h-2zM5 6h2v1h-2zM8 6h2v1h-2zM2 7h2v1h-2zM5 7h2v1h-2zM8 7h2v1h-2zM3 8h1v1h-1zM5 8h2v1h-2zM8 8h1v1h-1zM5 9h2v1h-2zM4 10h4v1h-4zM4 11h4v1h-4zM3 12h2v1h-2zM7 12h2v1h-2zM2 13h2v1h-2zM8 13h2v1h-2z" fill="#00e5ff"/><path d="M4 1h4v1h-4zM4 2h1v1h-1zM7 2h1v1h-1zM4 3h4v1h-4z" fill="#08323d"/><path d="M5 2h2v1h-2z" fill="#ffffff"/><animate attributeName="opacity" calcMode="discrete" dur="0.34s" repeatCount="indefinite" values="0;1;0;0" keyTimes="0;0.25;0.5;0.75"/></g><g opacity="0"><path d="M4 0h4v1h-4zM3 1h1v1h-1zM8 1h1v1h-1zM3 2h1v1h-1zM8 2h1v1h-1zM3 3h1v1h-1zM8 3h1v1h-1zM4 4h4v1h-4zM3 5h6v1h-6zM3 6h1v1h-1zM5 6h2v1h-2zM8 6h1v1h-1zM3 7h1v1h-1zM5 7h2v1h-2zM8 7h1v1h-1zM5 8h2v1h-2zM5 9h2v1h-2zM4 10h4v1h-4zM4 11h1v1h-1zM7 11h1v1h-1zM3 12h2v1h-2zM8 12h2v1h-2zM2 13h2v1h-2zM10 13h2v1h-2z" fill="#00e5ff"/><path d="M4 1h4v1h-4zM4 2h1v1h-1zM7 2h1v1h-1zM4 3h4v1h-4z" fill="#08323d"/><path d="M5 2h2v1h-2z" fill="#ffffff"/><animate attributeName="opacity" calcMode="discrete" dur="0.34s" repeatCount="indefinite" values="0;0;1;0" keyTimes="0;0.25;0.5;0.75"/></g><g opacity="0"><path d="M4 0h4v1h-4zM3 1h1v1h-1zM8 1h1v1h-1zM3 2h1v1h-1zM8 2h1v1h-1zM3 3h1v1h-1zM8 3h1v1h-1zM4 4h4v1h-4zM3 5h6v1h-6zM2 6h2v1h-2zM5 6h2v1h-2zM8 6h2v1h-2zM2 7h2v1h-2zM5 7h2v1h-2zM8 7h2v1h-2zM3 8h1v1h-1zM5 8h2v1h-2zM8 8h1v1h-1zM5 9h2v1h-2zM4 10h4v1h-4zM3 11h2v1h-2zM7 11h2v1h-2zM3 12h2v1h-2zM7 12h2v1h-2zM2 13h2v1h-2zM8 13h2v1h-2z" fill="#00e5ff"/><path d="M4 1h4v1h-4zM4 2h1v1h-1zM7 2h1v1h-1zM4 3h4v1h-4z" fill="#08323d"/><path d="M5 2h2v1h-2z" fill="#ffffff"/><animate attributeName="opacity" calcMode="discrete" dur="0.34s" repeatCount="indefinite" values="0;0;0;1" keyTimes="0;0.25;0.5;0.75"/></g><animate attributeName="opacity" dur="17.82s" repeatCount="indefinite" calcMode="discrete" values="1;1;1;1;1;1;1;0;0;0;0;0;0;0;0;0;0;0;0;0;1;1;0;0;0;0;0;0;0;0;0;0;0;0;0;1;1;0;0;0;0;0;0;0;0;0;0;0;0;0;1;1;0;0;0;0;0;0;0;0;0;0;0;0;0;1;1;1;1;1;1;1;0;0;0;0;0;0;0;0;0;0;0;0;0;1;1;0;0;0;0;0;0;0;0;0;0;0;0;0;1;1;0;0;0;0;0;0;0;0;0;0;0;0;0;1;1;0;0;0;0;0;0;0;0;0;0;0;0;0;1;1;0;0;0;0;0;0;0;0;0;0;0;0;0;1;1;0;0;0;0;0;0;0;0;0;0;0;0;0;1;1;0;0;0;0;0;0;0;0;0;0;0;0;0;1;1;0;0;0;0;0;0;0;0;0;0;0;0;0;1;1;0;0;0;0;0;0;0;0;0;0;0;0;0;1;1;0;0;0;0;0;0;0;0;0;0;0;0;0;1;1;0;0;0;0;0;0;0;0;0;0;0;0;0;1;1;1;1;1;1;1;0;0;0;0;0;0;0;0;0;0;0;0;0;1;1;0;0;0;0;0;0;0;0;0;0;0;0;0;1;1;1" keyTimes="0;0.01235;0.0166;0.02085;0.02511;0.02936;0.04171;0.04367;0.04563;0.04759;0.04955;0.05151;0.05347;0.05543;0.0574;0.05936;0.06132;0.06328;0.06524;0.0672;0.06916;0.08151;0.08307;0.08464;0.0862;0.08776;0.08932;0.09088;0.09245;0.09401;0.09557;0.09713;0.09869;0.10026;0.10182;0.10338;0.11573;0.1222;0.12867;0.13513;0.1416;0.14807;0.15454;0.16101;0.16748;0.17394;0.18041;0.18688;0.19335;0.19982;0.20629;0.21863;0.22068;0.22273;0.22478;0.22683;0.22887;0.23092;0.23297;0.23502;0.23707;0.23911;0.24116;0.24321;0.24526;0.24731;0.25966;0.26391;0.26816;0.27241;0.27666;0.28901;0.29123;0.29346;0.29568;0.2979;0.30012;0.30234;0.30456;0.30679;0.30901;0.31123;0.31345;0.31567;0.31789;0.32011;0.33246;0.33385;0.33524;0.33663;0.33802;0.33941;0.34079;0.34218;0.34357;0.34496;0.34635;0.34774;0.34913;0.35051;0.3519;0.36425;0.37125;0.37826;0.38526;0.39226;0.39927;0.40627;0.41327;0.42027;0.42728;0.43428;0.44128;0.44829;0.45529;0.46229;0.47464;0.4762;0.47776;0.47933;0.48089;0.48245;0.48401;0.48557;0.48714;0.4887;0.49026;0.49182;0.49338;0.49495;0.49651;0.50886;0.51016;0.51146;0.51276;0.51406;0.51537;0.51667;0.51797;0.51927;0.52057;0.52187;0.52318;0.52448;0.52578;0.52708;0.53943;0.5451;0.55076;0.55643;0.5621;0.56776;0.57343;0.57909;0.58476;0.59043;0.59609;0.60176;0.60743;0.61309;0.61876;0.63111;0.63264;0.63416;0.63569;0.63722;0.63874;0.64027;0.6418;0.64333;0.64485;0.64638;0.64791;0.64944;0.65096;0.65249;0.66484;0.66671;0.66859;0.67046;0.67234;0.67421;0.67609;0.67796;0.67984;0.68171;0.68358;0.68546;0.68733;0.68921;0.69108;0.70343;0.70491;0.70638;0.70786;0.70933;0.71081;0.71228;0.71376;0.71523;0.71671;0.71818;0.71966;0.72113;0.72261;0.72408;0.73643;0.73826;0.74008;0.7419;0.74372;0.74554;0.74737;0.74919;0.75101;0.75283;0.75466;0.75648;0.7583;0.76012;0.76195;0.77429;0.77582;0.77735;0.77888;0.7804;0.78193;0.78346;0.78499;0.78651;0.78804;0.78957;0.7911;0.79262;0.79415;0.79568;0.80803;0.81228;0.81653;0.82078;0.82504;0.83738;0.83926;0.84113;0.84301;0.84488;0.84676;0.84863;0.85051;0.85238;0.85425;0.85613;0.858;0.85988;0.86175;0.86363;0.87597;0.87754;0.8791;0.88066;0.88222;0.88379;0.88535;0.88691;0.88847;0.89003;0.8916;0.89316;0.89472;0.89628;0.89784;0.91019;1"/></g>
          <g opacity="0"><path d="M4 0h4v1h-4zM3 1h1v1h-1zM8 1h1v1h-1zM3 2h1v1h-1zM8 2h1v1h-1zM3 3h1v1h-1zM8 3h1v1h-1zM0 4h2v1h-2zM4 4h4v1h-4zM10 4h2v1h-2zM1 5h10v1h-10zM2 6h2v1h-2zM5 6h2v1h-2zM8 6h2v1h-2zM3 7h1v1h-1zM5 7h2v1h-2zM8 7h1v1h-1zM5 8h2v1h-2zM4 9h4v1h-4zM3 10h2v1h-2zM7 10h2v1h-2zM2 11h2v1h-2zM8 11h2v1h-2zM2 12h1v1h-1zM9 12h1v1h-1zM1 13h2v1h-2zM9 13h2v1h-2z" fill="#00e5ff"/><path d="M4 1h4v1h-4zM4 2h1v1h-1zM7 2h1v1h-1zM4 3h4v1h-4z" fill="#08323d"/><path d="M5 2h2v1h-2z" fill="#ffffff"/><animate attributeName="opacity" dur="17.82s" repeatCount="indefinite" calcMode="discrete" values="0;0;0;0;0;0;0;1;1;1;1;1;1;1;1;1;1;1;1;1;0;0;1;1;1;1;1;1;1;1;1;1;1;1;1;0;0;1;1;1;1;1;1;1;1;1;1;1;1;1;0;0;1;1;1;1;1;1;1;1;1;1;1;1;1;0;0;0;0;0;0;0;1;1;1;1;1;1;1;1;1;1;1;1;1;0;0;1;1;1;1;1;1;1;1;1;1;1;1;1;0;0;1;1;1;1;1;1;1;1;1;1;1;1;1;0;0;1;1;1;1;1;1;1;1;1;1;1;1;1;0;0;1;1;1;1;1;1;1;1;1;1;1;1;1;0;0;1;1;1;1;1;1;1;1;1;1;1;1;1;0;0;1;1;1;1;1;1;1;1;1;1;1;1;1;0;0;1;1;1;1;1;1;1;1;1;1;1;1;1;0;0;1;1;1;1;1;1;1;1;1;1;1;1;1;0;0;1;1;1;1;1;1;1;1;1;1;1;1;1;0;0;1;1;1;1;1;1;1;1;1;1;1;1;1;0;0;0;0;0;0;0;1;1;1;1;1;1;1;1;1;1;1;1;1;0;0;1;1;1;1;1;1;1;1;1;1;1;1;1;0;0;0" keyTimes="0;0.01235;0.0166;0.02085;0.02511;0.02936;0.04171;0.04367;0.04563;0.04759;0.04955;0.05151;0.05347;0.05543;0.0574;0.05936;0.06132;0.06328;0.06524;0.0672;0.06916;0.08151;0.08307;0.08464;0.0862;0.08776;0.08932;0.09088;0.09245;0.09401;0.09557;0.09713;0.09869;0.10026;0.10182;0.10338;0.11573;0.1222;0.12867;0.13513;0.1416;0.14807;0.15454;0.16101;0.16748;0.17394;0.18041;0.18688;0.19335;0.19982;0.20629;0.21863;0.22068;0.22273;0.22478;0.22683;0.22887;0.23092;0.23297;0.23502;0.23707;0.23911;0.24116;0.24321;0.24526;0.24731;0.25966;0.26391;0.26816;0.27241;0.27666;0.28901;0.29123;0.29346;0.29568;0.2979;0.30012;0.30234;0.30456;0.30679;0.30901;0.31123;0.31345;0.31567;0.31789;0.32011;0.33246;0.33385;0.33524;0.33663;0.33802;0.33941;0.34079;0.34218;0.34357;0.34496;0.34635;0.34774;0.34913;0.35051;0.3519;0.36425;0.37125;0.37826;0.38526;0.39226;0.39927;0.40627;0.41327;0.42027;0.42728;0.43428;0.44128;0.44829;0.45529;0.46229;0.47464;0.4762;0.47776;0.47933;0.48089;0.48245;0.48401;0.48557;0.48714;0.4887;0.49026;0.49182;0.49338;0.49495;0.49651;0.50886;0.51016;0.51146;0.51276;0.51406;0.51537;0.51667;0.51797;0.51927;0.52057;0.52187;0.52318;0.52448;0.52578;0.52708;0.53943;0.5451;0.55076;0.55643;0.5621;0.56776;0.57343;0.57909;0.58476;0.59043;0.59609;0.60176;0.60743;0.61309;0.61876;0.63111;0.63264;0.63416;0.63569;0.63722;0.63874;0.64027;0.6418;0.64333;0.64485;0.64638;0.64791;0.64944;0.65096;0.65249;0.66484;0.66671;0.66859;0.67046;0.67234;0.67421;0.67609;0.67796;0.67984;0.68171;0.68358;0.68546;0.68733;0.68921;0.69108;0.70343;0.70491;0.70638;0.70786;0.70933;0.71081;0.71228;0.71376;0.71523;0.71671;0.71818;0.71966;0.72113;0.72261;0.72408;0.73643;0.73826;0.74008;0.7419;0.74372;0.74554;0.74737;0.74919;0.75101;0.75283;0.75466;0.75648;0.7583;0.76012;0.76195;0.77429;0.77582;0.77735;0.77888;0.7804;0.78193;0.78346;0.78499;0.78651;0.78804;0.78957;0.7911;0.79262;0.79415;0.79568;0.80803;0.81228;0.81653;0.82078;0.82504;0.83738;0.83926;0.84113;0.84301;0.84488;0.84676;0.84863;0.85051;0.85238;0.85425;0.85613;0.858;0.85988;0.86175;0.86363;0.87597;0.87754;0.8791;0.88066;0.88222;0.88379;0.88535;0.88691;0.88847;0.89003;0.8916;0.89316;0.89472;0.89628;0.89784;0.91019;1"/></g>
        </g>
      </g>
    </g>
  </g>
</g>

<rect x="1.5" y="1.5" width="877" height="257" rx="11" fill="none" stroke="url(#edge)" stroke-width="2.5" opacity="0.85"/>
<line x1="0" y1="42" x2="880" y2="42" stroke="#1d3540" stroke-width="1.5"/>
<rect x="2" y="2" width="876" height="39" fill="#070a0f" opacity="0.92"/>
<text x="20" y="28" class="title">COMMIT RUN</text>
<text x="188" y="28" class="hud">// 2026-08-14 → 2026-10-08 // 143 contributions this year</text>
<text x="860" y="28" text-anchor="end" class="score" opacity="0">000<animate attributeName="opacity" calcMode="discrete" dur="17.82s" repeatCount="indefinite" values="0;1;0" keyTimes="0;0;0.06916"/></text><text x="860" y="28" text-anchor="end" class="score" opacity="0">007<animate attributeName="opacity" calcMode="discrete" dur="17.82s" repeatCount="indefinite" values="0;1;0" keyTimes="0;0.06916;0.10338"/></text><text x="860" y="28" text-anchor="end" class="score" opacity="0">010<animate attributeName="opacity" calcMode="discrete" dur="17.82s" repeatCount="indefinite" values="0;1;0" keyTimes="0;0.10338;0.20629"/></text><text x="860" y="28" text-anchor="end" class="score" opacity="0">018<animate attributeName="opacity" calcMode="discrete" dur="17.82s" repeatCount="indefinite" values="0;1;0" keyTimes="0;0.20629;0.32011"/></text><text x="860" y="28" text-anchor="end" class="score" opacity="0">028<animate attributeName="opacity" calcMode="discrete" dur="17.82s" repeatCount="indefinite" values="0;1;0" keyTimes="0;0.32011;0.3519"/></text><text x="860" y="28" text-anchor="end" class="score" opacity="0">036<animate attributeName="opacity" calcMode="discrete" dur="17.82s" repeatCount="indefinite" values="0;1;0" keyTimes="0;0.3519;0.46229"/></text><text x="860" y="28" text-anchor="end" class="score" opacity="0">037<animate attributeName="opacity" calcMode="discrete" dur="17.82s" repeatCount="indefinite" values="0;1;0" keyTimes="0;0.46229;0.49651"/></text><text x="860" y="28" text-anchor="end" class="score" opacity="0">042<animate attributeName="opacity" calcMode="discrete" dur="17.82s" repeatCount="indefinite" values="0;1;0" keyTimes="0;0.49651;0.52708"/></text><text x="860" y="28" text-anchor="end" class="score" opacity="0">046<animate attributeName="opacity" calcMode="discrete" dur="17.82s" repeatCount="indefinite" values="0;1;0" keyTimes="0;0.52708;0.61876"/></text><text x="860" y="28" text-anchor="end" class="score" opacity="0">048<animate attributeName="opacity" calcMode="discrete" dur="17.82s" repeatCount="indefinite" values="0;1;0" keyTimes="0;0.61876;0.69108"/></text><text x="860" y="28" text-anchor="end" class="score" opacity="0">054<animate attributeName="opacity" calcMode="discrete" dur="17.82s" repeatCount="indefinite" values="0;1;0" keyTimes="0;0.69108;0.72408"/></text><text x="860" y="28" text-anchor="end" class="score" opacity="0">063<animate attributeName="opacity" calcMode="discrete" dur="17.82s" repeatCount="indefinite" values="0;1;0" keyTimes="0;0.72408;0.76195"/></text><text x="860" y="28" text-anchor="end" class="score" opacity="0">065<animate attributeName="opacity" calcMode="discrete" dur="17.82s" repeatCount="indefinite" values="0;1;0" keyTimes="0;0.76195;0.86363"/></text><text x="860" y="28" text-anchor="end" class="score" opacity="0">071<animate attributeName="opacity" calcMode="discrete" dur="17.82s" repeatCount="indefinite" values="0;1;0" keyTimes="0;0.86363;0.89784"/></text><text x="860" y="28" text-anchor="end" class="score" opacity="0">073<animate attributeName="opacity" calcMode="discrete" dur="17.82s" repeatCount="indefinite" values="0;1;0" keyTimes="0;0.89784;1"/></text>
</svg>
